<svg width="135" height="25" viewBox="0 0 135 25" fill="none" xmlns="http://www.w3.org/2000/svg">
<path d="M12.3071 -6.10352e-05C13.4479 -6.10352e-05 14.5017 0.0873133 15.4687 0.349436C16.4356 0.524185 17.2287 0.884604 17.9349 1.32148C18.6411 1.75835 19.1626 2.38089 19.5211 3.17818C19.8687 3.97547 20.0534 4.94751 20.0534 6.00692C20.0534 7.24109 19.7927 8.3005 19.1734 9.09779C18.6411 9.89508 17.7719 10.605 16.7072 11.1292C18.2065 11.5661 19.3473 12.3634 20.0426 13.4228C20.7379 14.4822 21.1833 15.8038 21.1833 17.311C21.1833 18.5451 20.9226 19.6046 20.4772 20.4892C20.0426 21.3739 19.3364 22.1712 18.5433 22.6954C17.7502 23.2306 16.7833 23.6675 15.7294 23.9296C14.6756 24.1917 13.6217 24.3665 12.5679 24.3665L0.790894 24.3883V-6.10352e-05H12.3071ZM11.601 9.89508C12.5679 9.89508 13.361 9.63296 13.9694 9.18517C14.5778 8.73737 14.8494 7.951 14.8494 6.97896C14.8494 6.4438 14.7625 5.91955 14.5887 5.57005C14.4148 5.22056 14.1541 4.94751 13.7956 4.68539C13.4479 4.51064 13.0894 4.33589 12.6548 4.24852C12.2202 4.16114 11.7748 4.16114 11.2533 4.16114H6.1579V9.906C6.1579 9.89508 11.601 9.89508 11.601 9.89508ZM11.8617 20.3254C12.3941 20.3254 12.9155 20.238 13.361 20.1506C13.7956 20.0633 14.241 19.8885 14.5887 19.6155C14.9363 19.3424 15.2079 19.0803 15.4687 18.6434C15.6425 18.2066 15.8163 17.6714 15.8163 17.0489C15.8163 15.8147 15.4687 14.93 14.7625 14.3075C14.0563 13.7723 13.0894 13.5102 11.9486 13.5102H6.1579V20.3145H11.8617V20.3254ZM28.8319 20.2379C29.538 20.9479 30.5919 21.2974 31.9934 21.2974C32.9603 21.2974 33.8403 21.0352 34.5465 20.5874C35.2527 20.0523 35.6873 19.528 35.8611 18.9929H40.1634C39.4572 21.1117 38.4034 22.6189 37.0019 23.5909C35.6004 24.4756 33.9273 24.9998 31.9065 24.9998C30.505 24.9998 29.2664 24.7377 28.1257 24.2899C26.9849 23.8531 26.1049 23.2305 25.3118 22.3458C24.5187 21.5486 23.9103 20.5765 23.5518 19.4297C23.1172 18.2829 22.9325 17.0488 22.9325 15.6289C22.9325 14.3074 23.1063 13.0623 23.5518 11.9155C23.9972 10.7688 24.6056 9.79671 25.3987 8.91205C26.1918 8.11476 27.1587 7.40484 28.2126 6.96797C29.3533 6.5311 30.4941 6.25805 31.9065 6.25805C33.4058 6.25805 34.7204 6.52018 35.8611 7.14272C37.0019 7.76526 37.8819 8.46425 38.5881 9.52367C39.2943 10.4957 39.8158 11.6425 40.1743 12.8767C40.3481 14.1108 40.435 15.3559 40.3481 16.7648H27.6042C27.6042 18.2065 28.1257 19.528 28.8319 20.2379ZM34.3727 10.9544C33.7534 10.3319 32.7865 9.98238 31.6457 9.98238C30.8526 9.98238 30.2442 10.1571 29.7119 10.4193C29.1795 10.6814 28.8319 11.0418 28.4842 11.3913C28.1365 11.7408 27.9518 12.1886 27.8649 12.6255C27.778 13.0623 27.6911 13.4227 27.6911 13.7722H35.6004C35.4265 12.4616 34.9811 11.577 34.3727 10.9544ZM26.6373 1.68182H36.4804V4.06277H26.6373V1.68182ZM47.2035 -6.10352e-05V9.18517H47.2904C47.9097 8.12575 48.6919 7.41584 49.6589 6.97896C50.6258 6.54209 51.5058 6.26905 52.4728 6.26905C53.7873 6.26905 54.8412 6.4438 55.6343 6.80421C56.4274 7.15371 57.1336 7.68888 57.5681 8.31142C58.0027 8.93396 58.3612 9.72033 58.5351 10.605C58.7089 11.4897 58.7958 12.4617 58.7958 13.6085V24.4757H53.9612V14.4932C53.9612 12.9859 53.7004 11.9265 53.255 11.2275C52.8095 10.5285 52.0382 10.1572 50.8974 10.1572C49.5828 10.1572 48.6159 10.5941 48.0835 11.304C47.4643 12.1013 47.2035 13.4228 47.2035 15.1922V24.4757H42.3689V-6.10352e-05H47.2035ZM62.3267 9.37096C62.8591 8.57367 63.4675 8.04942 64.2606 7.51425C65.0537 7.07738 65.9337 6.71696 66.9007 6.54221C67.8676 6.36747 68.8345 6.28009 69.8014 6.28009C70.6814 6.28009 71.5615 6.36746 72.5284 6.45484C73.4084 6.54221 74.2884 6.80434 74.9946 7.16476C75.7877 7.51425 76.3092 8.04942 76.8416 8.67196C77.2761 9.29451 77.5477 10.1792 77.5477 11.2386V20.5221C77.5477 21.3194 77.6347 22.1167 77.7216 22.8157C77.8085 23.5256 78.0692 24.1372 78.3408 24.4976H73.4193C73.2455 24.3229 73.1585 23.9625 73.0716 23.7003C72.9847 23.4382 72.9847 23.0778 72.9847 22.8157C72.1916 23.613 71.3116 24.1372 70.2577 24.4976C69.2039 24.8471 68.1501 24.9345 67.0962 24.9345C66.2162 24.9345 65.51 24.8471 64.7278 24.585C64.0216 24.4103 63.4132 24.0498 62.7939 23.613C62.2616 23.1761 61.827 22.6409 61.4793 21.931C61.2186 21.2211 61.0447 20.5221 61.0447 19.5501C61.0447 18.578 61.2186 17.6934 61.5771 17.0708C61.9248 16.4483 62.3702 15.924 62.8917 15.4762C63.424 15.1267 64.1194 14.7663 64.8256 14.5916C65.5317 14.4168 66.2271 14.2421 67.0202 14.1547C67.7263 14.0673 68.4217 13.98 69.1278 13.8926C69.834 13.8052 70.4424 13.7178 70.9748 13.6305C71.5071 13.4557 71.9417 13.281 72.2894 13.0079C72.637 12.7458 72.724 12.3854 72.724 11.8611C72.724 11.326 72.637 10.8891 72.4632 10.627C72.2894 10.3648 72.0286 10.0918 71.757 9.91705C71.4963 9.7423 71.1378 9.65492 70.7901 9.56755C70.4424 9.48017 69.997 9.48018 69.5624 9.48018C68.5955 9.48018 67.8893 9.65492 67.3678 10.1027C66.8355 10.5396 66.4878 11.2495 66.4009 12.1342H61.5662C61.5336 11.042 61.8813 10.07 62.3267 9.37096ZM71.9091 16.2626C71.6484 16.35 71.2899 16.4374 70.9422 16.5247C70.5945 16.6121 70.236 16.6121 69.8014 16.6995C69.4538 16.7869 69.0083 16.7869 68.6607 16.8742C68.313 16.9616 67.9545 17.049 67.6068 17.1363C67.2592 17.2237 66.9007 17.3985 66.7268 17.5732C66.4661 17.748 66.2922 18.0101 66.1076 18.2831C65.8468 18.6326 65.8468 18.9931 65.8468 19.4299C65.8468 19.8668 65.9337 20.2272 66.1076 20.4893C66.2814 20.7515 66.4552 21.0245 66.7268 21.1993C66.9876 21.374 67.3461 21.4614 67.6937 21.5488C68.0414 21.6361 68.3999 21.6361 68.8345 21.6361C69.8014 21.6361 70.5076 21.4614 71.0291 21.1993C71.5615 20.8498 71.9091 20.4893 72.1699 20.0525C72.4306 19.6156 72.6044 19.1678 72.6044 18.7309C72.6914 18.2941 72.6914 17.9336 72.6914 17.6715V15.8148C72.4306 15.9896 72.1699 16.1752 71.9091 16.2626ZM84.8269 6.71696V9.19621H84.9138C85.5331 8.13679 86.3153 7.42688 87.2822 6.99001C88.2492 6.55314 89.303 6.28009 90.2699 6.28009C91.5845 6.28009 92.6384 6.45484 93.4315 6.81526C94.3115 7.16476 94.9307 7.69992 95.3653 8.32246C95.7999 8.94501 96.1584 9.73138 96.4192 10.616C96.593 11.5007 96.6799 12.4727 96.6799 13.6195V24.4867H91.8453V14.5042C91.8453 12.997 91.5845 11.9376 91.1391 11.2386C90.7045 10.5287 89.9114 10.0918 88.6729 10.0918C87.3583 10.0918 86.3913 10.627 85.7721 11.4133C85.1528 12.2106 84.8921 13.5322 84.8921 15.3015V24.585H80.0574V6.71696C80.0791 6.71696 84.8269 6.71696 84.8269 6.71696ZM107.512 9.89514C106.719 9.89514 106.11 10.0699 105.578 10.4303C105.045 10.7798 104.611 11.2276 104.263 11.8392C103.916 12.3744 103.731 12.986 103.557 13.6959C103.383 14.4058 103.383 15.0175 103.383 15.7274C103.383 16.3499 103.47 17.0489 103.557 17.6715C103.731 18.3814 103.905 18.9056 104.263 19.4408C104.611 19.9759 104.969 20.4128 105.491 20.7623C106.023 21.1118 106.632 21.2975 107.425 21.2975C108.566 21.2975 109.446 20.948 110.152 20.3254C110.771 19.7029 111.206 18.8182 111.292 17.6715H115.953C115.606 20.0524 114.726 21.8217 113.226 23.0668C111.727 24.301 109.793 24.9235 107.425 24.9235C106.11 24.9235 104.872 24.6614 103.818 24.2136C102.677 23.7767 101.797 23.1542 101.004 22.3569C100.211 21.5596 99.6024 20.5876 99.157 19.5282C98.7224 18.3814 98.5377 17.2346 98.5377 15.9021C98.5377 14.4932 98.7115 13.2481 99.157 12.1013C99.5916 10.9546 100.124 9.89514 100.917 9.01047C101.71 8.12581 102.677 7.50327 103.731 6.97902C104.872 6.54215 106.099 6.2691 107.512 6.2691C108.566 6.2691 109.532 6.44385 110.499 6.70598C111.466 6.9681 112.346 7.41589 113.053 7.94014C113.846 8.4753 114.454 9.1743 114.899 10.059C115.334 10.8563 115.606 11.9157 115.693 13.0625H110.945C110.76 10.9546 109.619 9.89514 107.512 9.89514ZM123.243 20.2381C123.95 20.948 125.09 21.2975 126.405 21.2975C127.372 21.2975 128.252 21.0354 128.958 20.5876C129.664 20.0525 130.099 19.5282 130.273 18.993H134.488C133.782 21.1119 132.728 22.6191 131.326 23.5911C129.925 24.4758 128.252 25 126.231 25C124.83 25 123.591 24.7379 122.45 24.2901C121.309 23.8532 120.429 23.2307 119.636 22.346C118.843 21.5487 118.235 20.5767 117.876 19.4299C117.442 18.2831 117.257 17.049 117.257 15.6291C117.257 14.3076 117.431 13.0625 117.876 11.9157C118.311 10.7689 118.93 9.7969 119.723 8.91223C120.516 8.11494 121.483 7.40503 122.537 6.96816C123.678 6.53128 124.906 6.25824 126.231 6.25824C127.73 6.25824 129.045 6.52036 130.099 7.1429C131.24 7.76545 132.12 8.46444 132.826 9.52385C133.532 10.4959 134.053 11.6427 134.412 12.8768C134.76 14.111 134.846 15.4435 134.76 16.8524H122.016C122.016 18.2067 122.537 19.5282 123.243 20.2381ZM128.871 10.9546C128.252 10.3321 127.285 9.98257 126.144 9.98257C125.351 9.98257 124.743 10.1573 124.21 10.4194C123.678 10.6816 123.243 11.042 122.983 11.3915C122.722 11.741 122.45 12.1888 122.363 12.6256C122.276 13.0625 122.189 13.4229 122.189 13.7724H130.099C129.838 12.4618 129.393 11.5772 128.871 10.9546Z" fill="#2563EB"/>
<path d="M12.3071 -6.10352e-05C13.4479 -6.10352e-05 14.5017 0.0873133 15.4687 0.349436C16.4356 0.524185 17.2287 0.884604 17.9349 1.32148C18.6411 1.75835 19.1626 2.38089 19.5211 3.17818C19.8687 3.97547 20.0534 4.94751 20.0534 6.00692C20.0534 7.24109 19.7927 8.3005 19.1734 9.09779C18.6411 9.89508 17.7719 10.605 16.7072 11.1292C18.2065 11.5661 19.3473 12.3634 20.0426 13.4228C20.7379 14.4822 21.1833 15.8038 21.1833 17.311C21.1833 18.5451 20.9226 19.6046 20.4772 20.4892C20.0426 21.3739 19.3364 22.1712 18.5433 22.6954C17.7502 23.2306 16.7833 23.6675 15.7294 23.9296C14.6756 24.1917 13.6217 24.3665 12.5679 24.3665L0.790894 24.3883V-6.10352e-05H12.3071ZM11.601 9.89508C12.5679 9.89508 13.361 9.63296 13.9694 9.18517C14.5778 8.73737 14.8494 7.951 14.8494 6.97896C14.8494 6.4438 14.7625 5.91955 14.5887 5.57005C14.4148 5.22056 14.1541 4.94751 13.7956 4.68539C13.4479 4.51064 13.0894 4.33589 12.6548 4.24852C12.2202 4.16114 11.7748 4.16114 11.2533 4.16114H6.1579V9.906C6.1579 9.89508 11.601 9.89508 11.601 9.89508ZM11.8617 20.3254C12.3941 20.3254 12.9155 20.238 13.361 20.1506C13.7956 20.0633 14.241 19.8885 14.5887 19.6155C14.9363 19.3424 15.2079 19.0803 15.4687 18.6434C15.6425 18.2066 15.8163 17.6714 15.8163 17.0489C15.8163 15.8147 15.4687 14.93 14.7625 14.3075C14.0563 13.7723 13.0894 13.5102 11.9486 13.5102H6.1579V20.3145H11.8617V20.3254ZM28.8319 20.2379C29.538 20.9479 30.5919 21.2974 31.9934 21.2974C32.9603 21.2974 33.8403 21.0352 34.5465 20.5874C35.2527 20.0523 35.6873 19.528 35.8611 18.9929H40.1634C39.4572 21.1117 38.4034 22.6189 37.0019 23.5909C35.6004 24.4756 33.9273 24.9998 31.9065 24.9998C30.505 24.9998 29.2664 24.7377 28.1257 24.2899C26.9849 23.8531 26.1049 23.2305 25.3118 22.3458C24.5187 21.5486 23.9103 20.5765 23.5518 19.4297C23.1172 18.2829 22.9325 17.0488 22.9325 15.6289C22.9325 14.3074 23.1063 13.0623 23.5518 11.9155C23.9972 10.7688 24.6056 9.79671 25.3987 8.91205C26.1918 8.11476 27.1587 7.40484 28.2126 6.96797C29.3533 6.5311 30.4941 6.25805 31.9065 6.25805C33.4058 6.25805 34.7204 6.52018 35.8611 7.14272C37.0019 7.76526 37.8819 8.46425 38.5881 9.52367C39.2943 10.4957 39.8158 11.6425 40.1743 12.8767C40.3481 14.1108 40.435 15.3559 40.3481 16.7648H27.6042C27.6042 18.2065 28.1257 19.528 28.8319 20.2379ZM34.3727 10.9544C33.7534 10.3319 32.7865 9.98238 31.6457 9.98238C30.8526 9.98238 30.2442 10.1571 29.7119 10.4193C29.1795 10.6814 28.8319 11.0418 28.4842 11.3913C28.1365 11.7408 27.9518 12.1886 27.8649 12.6255C27.778 13.0623 27.6911 13.4227 27.6911 13.7722H35.6004C35.4265 12.4616 34.9811 11.577 34.3727 10.9544ZM26.6373 1.68182H36.4804V4.06277H26.6373V1.68182ZM47.2035 -6.10352e-05V9.18517H47.2904C47.9097 8.12575 48.6919 7.41584 49.6589 6.97896C50.6258 6.54209 51.5058 6.26905 52.4728 6.26905C53.7873 6.26905 54.8412 6.4438 55.6343 6.80421C56.4274 7.15371 57.1336 7.68888 57.5681 8.31142C58.0027 8.93396 58.3612 9.72033 58.5351 10.605C58.7089 11.4897 58.7958 12.4617 58.7958 13.6085V24.4757H53.9612V14.4932C53.9612 12.9859 53.7004 11.9265 53.255 11.2275C52.8095 10.5285 52.0382 10.1572 50.8974 10.1572C49.5828 10.1572 48.6159 10.5941 48.0835 11.304C47.4643 12.1013 47.2035 13.4228 47.2035 15.1922V24.4757H42.3689V-6.10352e-05H47.2035ZM62.3267 9.37096C62.8591 8.57367 63.4675 8.04942 64.2606 7.51425C65.0537 7.07738 65.9337 6.71696 66.9007 6.54221C67.8676 6.36747 68.8345 6.28009 69.8014 6.28009C70.6814 6.28009 71.5615 6.36746 72.5284 6.45484C73.4084 6.54221 74.2884 6.80434 74.9946 7.16476C75.7877 7.51425 76.3092 8.04942 76.8416 8.67196C77.2761 9.29451 77.5477 10.1792 77.5477 11.2386V20.5221C77.5477 21.3194 77.6347 22.1167 77.7216 22.8157C77.8085 23.5256 78.0692 24.1372 78.3408 24.4976H73.4193C73.2455 24.3229 73.1585 23.9625 73.0716 23.7003C72.9847 23.4382 72.9847 23.0778 72.9847 22.8157C72.1916 23.613 71.3116 24.1372 70.2577 24.4976C69.2039 24.8471 68.1501 24.9345 67.0962 24.9345C66.2162 24.9345 65.51 24.8471 64.7278 24.585C64.0216 24.4103 63.4132 24.0498 62.7939 23.613C62.2616 23.1761 61.827 22.6409 61.4793 21.931C61.2186 21.2211 61.0447 20.5221 61.0447 19.5501C61.0447 18.578 61.2186 17.6934 61.5771 17.0708C61.9248 16.4483 62.3702 15.924 62.8917 15.4762C63.424 15.1267 64.1194 14.7663 64.8256 14.5916C65.5317 14.4168 66.2271 14.2421 67.0202 14.1547C67.7263 14.0673 68.4217 13.98 69.1278 13.8926C69.834 13.8052 70.4424 13.7178 70.9748 13.6305C71.5071 13.4557 71.9417 13.281 72.2894 13.0079C72.637 12.7458 72.724 12.3854 72.724 11.8611C72.724 11.326 72.637 10.8891 72.4632 10.627C72.2894 10.3648 72.0286 10.0918 71.757 9.91705C71.4963 9.7423 71.1378 9.65492 70.7901 9.56755C70.4424 9.48017 69.997 9.48018 69.5624 9.48018C68.5955 9.48018 67.8893 9.65492 67.3678 10.1027C66.8355 10.5396 66.4878 11.2495 66.4009 12.1342H61.5662C61.5336 11.042 61.8813 10.07 62.3267 9.37096ZM71.9091 16.2626C71.6484 16.35 71.2899 16.4374 70.9422 16.5247C70.5945 16.6121 70.236 16.6121 69.8014 16.6995C69.4538 16.7869 69.0083 16.7869 68.6607 16.8742C68.313 16.9616 67.9545 17.049 67.6068 17.1363C67.2592 17.2237 66.9007 17.3985 66.7268 17.5732C66.4661 17.748 66.2922 18.0101 66.1076 18.2831C65.8468 18.6326 65.8468 18.9931 65.8468 19.4299C65.8468 19.8668 65.9337 20.2272 66.1076 20.4893C66.2814 20.7515 66.4552 21.0245 66.7268 21.1993C66.9876 21.374 67.3461 21.4614 67.6937 21.5488C68.0414 21.6361 68.3999 21.6361 68.8345 21.6361C69.8014 21.6361 70.5076 21.4614 71.0291 21.1993C71.5615 20.8498 71.9091 20.4893 72.1699 20.0525C72.4306 19.6156 72.6044 19.1678 72.6044 18.7309C72.6914 18.2941 72.6914 17.9336 72.6914 17.6715V15.8148C72.4306 15.9896 72.1699 16.1752 71.9091 16.2626ZM84.8269 6.71696V9.19621H84.9138C85.5331 8.13679 86.3153 7.42688 87.2822 6.99001C88.2492 6.55314 89.303 6.28009 90.2699 6.28009C91.5845 6.28009 92.6384 6.45484 93.4315 6.81526C94.3115 7.16476 94.9307 7.69992 95.3653 8.32246C95.7999 8.94501 96.1584 9.73138 96.4192 10.616C96.593 11.5007 96.6799 12.4727 96.6799 13.6195V24.4867H91.8453V14.5042C91.8453 12.997 91.5845 11.9376 91.1391 11.2386C90.7045 10.5287 89.9114 10.0918 88.6729 10.0918C87.3583 10.0918 86.3913 10.627 85.7721 11.4133C85.1528 12.2106 84.8921 13.5322 84.8921 15.3015V24.585H80.0574V6.71696C80.0791 6.71696 84.8269 6.71696 84.8269 6.71696ZM107.512 9.89514C106.719 9.89514 106.11 10.0699 105.578 10.4303C105.045 10.7798 104.611 11.2276 104.263 11.8392C103.916 12.3744 103.731 12.986 103.557 13.6959C103.383 14.4058 103.383 15.0175 103.383 15.7274C103.383 16.3499 103.47 17.0489 103.557 17.6715C103.731 18.3814 103.905 18.9056 104.263 19.4408C104.611 19.9759 104.969 20.4128 105.491 20.7623C106.023 21.1118 106.632 21.2975 107.425 21.2975C108.566 21.2975 109.446 20.948 110.152 20.3254C110.771 19.7029 111.206 18.8182 111.292 17.6715H115.953C115.606 20.0524 114.726 21.8217 113.226 23.0668C111.727 24.301 109.793 24.9235 107.425 24.9235C106.11 24.9235 104.872 24.6614 103.818 24.2136C102.677 23.7767 101.797 23.1542 101.004 22.3569C100.211 21.5596 99.6024 20.5876 99.157 19.5282C98.7224 18.3814 98.5377 17.2346 98.5377 15.9021C98.5377 14.4932 98.7115 13.2481 99.157 12.1013C99.5916 10.9546 100.124 9.89514 100.917 9.01047C101.71 8.12581 102.677 7.50327 103.731 6.97902C104.872 6.54215 106.099 6.2691 107.512 6.2691C108.566 6.2691 109.532 6.44385 110.499 6.70598C111.466 6.9681 112.346 7.41589 113.053 7.94014C113.846 8.4753 114.454 9.1743 114.899 10.059C115.334 10.8563 115.606 11.9157 115.693 13.0625H110.945C110.76 10.9546 109.619 9.89514 107.512 9.89514ZM123.243 20.2381C123.95 20.948 125.09 21.2975 126.405 21.2975C127.372 21.2975 128.252 21.0354 128.958 20.5876C129.664 20.0525 130.099 19.5282 130.273 18.993H134.488C133.782 21.1119 132.728 22.6191 131.326 23.5911C129.925 24.4758 128.252 25 126.231 25C124.83 25 123.591 24.7379 122.45 24.2901C121.309 23.8532 120.429 23.2307 119.636 22.346C118.843 21.5487 118.235 20.5767 117.876 19.4299C117.442 18.2831 117.257 17.049 117.257 15.6291C117.257 14.3076 117.431 13.0625 117.876 11.9157C118.311 10.7689 118.93 9.7969 119.723 8.91223C120.516 8.11494 121.483 7.40503 122.537 6.96816C123.678 6.53128 124.906 6.25824 126.231 6.25824C127.73 6.25824 129.045 6.52036 130.099 7.1429C131.24 7.76545 132.12 8.46444 132.826 9.52385C133.532 10.4959 134.053 11.6427 134.412 12.8768C134.76 14.111 134.846 15.4435 134.76 16.8524H122.016C122.016 18.2067 122.537 19.5282 123.243 20.2381ZM128.871 10.9546C128.252 10.3321 127.285 9.98257 126.144 9.98257C125.351 9.98257 124.743 10.1573 124.21 10.4194C123.678 10.6816 123.243 11.042 122.983 11.3915C122.722 11.741 122.45 12.1888 122.363 12.6256C122.276 13.0625 122.189 13.4229 122.189 13.7724H130.099C129.838 12.4618 129.393 11.5772 128.871 10.9546Z" fill="#2563EB"/>
<path d="M12.3071 -6.10352e-05C13.4479 -6.10352e-05 14.5017 0.0873133 15.4687 0.349436C16.4356 0.524185 17.2287 0.884604 17.9349 1.32148C18.6411 1.75835 19.1626 2.38089 19.5211 3.17818C19.8687 3.97547 20.0534 4.94751 20.0534 6.00692C20.0534 7.24109 19.7927 8.3005 19.1734 9.09779C18.6411 9.89508 17.7719 10.605 16.7072 11.1292C18.2065 11.5661 19.3473 12.3634 20.0426 13.4228C20.7379 14.4822 21.1833 15.8038 21.1833 17.311C21.1833 18.5451 20.9226 19.6046 20.4772 20.4892C20.0426 21.3739 19.3364 22.1712 18.5433 22.6954C17.7502 23.2306 16.7833 23.6675 15.7294 23.9296C14.6756 24.1917 13.6217 24.3665 12.5679 24.3665L0.790894 24.3883V-6.10352e-05H12.3071ZM11.601 9.89508C12.5679 9.89508 13.361 9.63296 13.9694 9.18517C14.5778 8.73737 14.8494 7.951 14.8494 6.97896C14.8494 6.4438 14.7625 5.91955 14.5887 5.57005C14.4148 5.22056 14.1541 4.94751 13.7956 4.68539C13.4479 4.51064 13.0894 4.33589 12.6548 4.24852C12.2202 4.16114 11.7748 4.16114 11.2533 4.16114H6.1579V9.906C6.1579 9.89508 11.601 9.89508 11.601 9.89508ZM11.8617 20.3254C12.3941 20.3254 12.9155 20.238 13.361 20.1506C13.7956 20.0633 14.241 19.8885 14.5887 19.6155C14.9363 19.3424 15.2079 19.0803 15.4687 18.6434C15.6425 18.2066 15.8163 17.6714 15.8163 17.0489C15.8163 15.8147 15.4687 14.93 14.7625 14.3075C14.0563 13.7723 13.0894 13.5102 11.9486 13.5102H6.1579V20.3145H11.8617V20.3254ZM28.8319 20.2379C29.538 20.9479 30.5919 21.2974 31.9934 21.2974C32.9603 21.2974 33.8403 21.0352 34.5465 20.5874C35.2527 20.0523 35.6873 19.528 35.8611 18.9929H40.1634C39.4572 21.1117 38.4034 22.6189 37.0019 23.5909C35.6004 24.4756 33.9273 24.9998 31.9065 24.9998C30.505 24.9998 29.2664 24.7377 28.1257 24.2899C26.9849 23.8531 26.1049 23.2305 25.3118 22.3458C24.5187 21.5486 23.9103 20.5765 23.5518 19.4297C23.1172 18.2829 22.9325 17.0488 22.9325 15.6289C22.9325 14.3074 23.1063 13.0623 23.5518 11.9155C23.9972 10.7688 24.6056 9.79671 25.3987 8.91205C26.1918 8.11476 27.1587 7.40484 28.2126 6.96797C29.3533 6.5311 30.4941 6.25805 31.9065 6.25805C33.4058 6.25805 34.7204 6.52018 35.8611 7.14272C37.0019 7.76526 37.8819 8.46425 38.5881 9.52367C39.2943 10.4957 39.8158 11.6425 40.1743 12.8767C40.3481 14.1108 40.435 15.3559 40.3481 16.7648H27.6042C27.6042 18.2065 28.1257 19.528 28.8319 20.2379ZM34.3727 10.9544C33.7534 10.3319 32.7865 9.98238 31.6457 9.98238C30.8526 9.98238 30.2442 10.1571 29.7119 10.4193C29.1795 10.6814 28.8319 11.0418 28.4842 11.3913C28.1365 11.7408 27.9518 12.1886 27.8649 12.6255C27.778 13.0623 27.6911 13.4227 27.6911 13.7722H35.6004C35.4265 12.4616 34.9811 11.577 34.3727 10.9544ZM26.6373 1.68182H36.4804V4.06277H26.6373V1.68182ZM47.2035 -6.10352e-05V9.18517H47.2904C47.9097 8.12575 48.6919 7.41584 49.6589 6.97896C50.6258 6.54209 51.5058 6.26905 52.4728 6.26905C53.7873 6.26905 54.8412 6.4438 55.6343 6.80421C56.4274 7.15371 57.1336 7.68888 57.5681 8.31142C58.0027 8.93396 58.3612 9.72033 58.5351 10.605C58.7089 11.4897 58.7958 12.4617 58.7958 13.6085V24.4757H53.9612V14.4932C53.9612 12.9859 53.7004 11.9265 53.255 11.2275C52.8095 10.5285 52.0382 10.1572 50.8974 10.1572C49.5828 10.1572 48.6159 10.5941 48.0835 11.304C47.4643 12.1013 47.2035 13.4228 47.2035 15.1922V24.4757H42.3689V-6.10352e-05H47.2035ZM62.3267 9.37096C62.8591 8.57367 63.4675 8.04942 64.2606 7.51425C65.0537 7.07738 65.9337 6.71696 66.9007 6.54221C67.8676 6.36747 68.8345 6.28009 69.8014 6.28009C70.6814 6.28009 71.5615 6.36746 72.5284 6.45484C73.4084 6.54221 74.2884 6.80434 74.9946 7.16476C75.7877 7.51425 76.3092 8.04942 76.8416 8.67196C77.2761 9.29451 77.5477 10.1792 77.5477 11.2386V20.5221C77.5477 21.3194 77.6347 22.1167 77.7216 22.8157C77.8085 23.5256 78.0692 24.1372 78.3408 24.4976H73.4193C73.2455 24.3229 73.1585 23.9625 73.0716 23.7003C72.9847 23.4382 72.9847 23.0778 72.9847 22.8157C72.1916 23.613 71.3116 24.1372 70.2577 24.4976C69.2039 24.8471 68.1501 24.9345 67.0962 24.9345C66.2162 24.9345 65.51 24.8471 64.7278 24.585C64.0216 24.4103 63.4132 24.0498 62.7939 23.613C62.2616 23.1761 61.827 22.6409 61.4793 21.931C61.2186 21.2211 61.0447 20.5221 61.0447 19.5501C61.0447 18.578 61.2186 17.6934 61.5771 17.0708C61.9248 16.4483 62.3702 15.924 62.8917 15.4762C63.424 15.1267 64.1194 14.7663 64.8256 14.5916C65.5317 14.4168 66.2271 14.2421 67.0202 14.1547C67.7263 14.0673 68.4217 13.98 69.1278 13.8926C69.834 13.8052 70.4424 13.7178 70.9748 13.6305C71.5071 13.4557 71.9417 13.281 72.2894 13.0079C72.637 12.7458 72.724 12.3854 72.724 11.8611C72.724 11.326 72.637 10.8891 72.4632 10.627C72.2894 10.3648 72.0286 10.0918 71.757 9.91705C71.4963 9.7423 71.1378 9.65492 70.7901 9.56755C70.4424 9.48017 69.997 9.48018 69.5624 9.48018C68.5955 9.48018 67.8893 9.65492 67.3678 10.1027C66.8355 10.5396 66.4878 11.2495 66.4009 12.1342H61.5662C61.5336 11.042 61.8813 10.07 62.3267 9.37096ZM71.9091 16.2626C71.6484 16.35 71.2899 16.4374 70.9422 16.5247C70.5945 16.6121 70.236 16.6121 69.8014 16.6995C69.4538 16.7869 69.0083 16.7869 68.6607 16.8742C68.313 16.9616 67.9545 17.049 67.6068 17.1363C67.2592 17.2237 66.9007 17.3985 66.7268 17.5732C66.4661 17.748 66.2922 18.0101 66.1076 18.2831C65.8468 18.6326 65.8468 18.9931 65.8468 19.4299C65.8468 19.8668 65.9337 20.2272 66.1076 20.4893C66.2814 20.7515 66.4552 21.0245 66.7268 21.1993C66.9876 21.374 67.3461 21.4614 67.6937 21.5488C68.0414 21.6361 68.3999 21.6361 68.8345 21.6361C69.8014 21.6361 70.5076 21.4614 71.0291 21.1993C71.5615 20.8498 71.9091 20.4893 72.1699 20.0525C72.4306 19.6156 72.6044 19.1678 72.6044 18.7309C72.6914 18.2941 72.6914 17.9336 72.6914 17.6715V15.8148C72.4306 15.9896 72.1699 16.1752 71.9091 16.2626ZM84.8269 6.71696V9.19621H84.9138C85.5331 8.13679 86.3153 7.42688 87.2822 6.99001C88.2492 6.55314 89.303 6.28009 90.2699 6.28009C91.5845 6.28009 92.6384 6.45484 93.4315 6.81526C94.3115 7.16476 94.9307 7.69992 95.3653 8.32246C95.7999 8.94501 96.1584 9.73138 96.4192 10.616C96.593 11.5007 96.6799 12.4727 96.6799 13.6195V24.4867H91.8453V14.5042C91.8453 12.997 91.5845 11.9376 91.1391 11.2386C90.7045 10.5287 89.9114 10.0918 88.6729 10.0918C87.3583 10.0918 86.3913 10.627 85.7721 11.4133C85.1528 12.2106 84.8921 13.5322 84.8921 15.3015V24.585H80.0574V6.71696C80.0791 6.71696 84.8269 6.71696 84.8269 6.71696ZM107.512 9.89514C106.719 9.89514 106.11 10.0699 105.578 10.4303C105.045 10.7798 104.611 11.2276 104.263 11.8392C103.916 12.3744 103.731 12.986 103.557 13.6959C103.383 14.4058 103.383 15.0175 103.383 15.7274C103.383 16.3499 103.47 17.0489 103.557 17.6715C103.731 18.3814 103.905 18.9056 104.263 19.4408C104.611 19.9759 104.969 20.4128 105.491 20.7623C106.023 21.1118 106.632 21.2975 107.425 21.2975C108.566 21.2975 109.446 20.948 110.152 20.3254C110.771 19.7029 111.206 18.8182 111.292 17.6715H115.953C115.606 20.0524 114.726 21.8217 113.226 23.0668C111.727 24.301 109.793 24.9235 107.425 24.9235C106.11 24.9235 104.872 24.6614 103.818 24.2136C102.677 23.7767 101.797 23.1542 101.004 22.3569C100.211 21.5596 99.6024 20.5876 99.157 19.5282C98.7224 18.3814 98.5377 17.2346 98.5377 15.9021C98.5377 14.4932 98.7115 13.2481 99.157 12.1013C99.5916 10.9546 100.124 9.89514 100.917 9.01047C101.71 8.12581 102.677 7.50327 103.731 6.97902C104.872 6.54215 106.099 6.2691 107.512 6.2691C108.566 6.2691 109.532 6.44385 110.499 6.70598C111.466 6.9681 112.346 7.41589 113.053 7.94014C113.846 8.4753 114.454 9.1743 114.899 10.059C115.334 10.8563 115.606 11.9157 115.693 13.0625H110.945C110.76 10.9546 109.619 9.89514 107.512 9.89514ZM123.243 20.2381C123.95 20.948 125.09 21.2975 126.405 21.2975C127.372 21.2975 128.252 21.0354 128.958 20.5876C129.664 20.0525 130.099 19.5282 130.273 18.993H134.488C133.782 21.1119 132.728 22.6191 131.326 23.5911C129.925 24.4758 128.252 25 126.231 25C124.83 25 123.591 24.7379 122.45 24.2901C121.309 23.8532 120.429 23.2307 119.636 22.346C118.843 21.5487 118.235 20.5767 117.876 19.4299C117.442 18.2831 117.257 17.049 117.257 15.6291C117.257 14.3076 117.431 13.0625 117.876 11.9157C118.311 10.7689 118.93 9.7969 119.723 8.91223C120.516 8.11494 121.483 7.40503 122.537 6.96816C123.678 6.53128 124.906 6.25824 126.231 6.25824C127.73 6.25824 129.045 6.52036 130.099 7.1429C131.24 7.76545 132.12 8.46444 132.826 9.52385C133.532 10.4959 134.053 11.6427 134.412 12.8768C134.76 14.111 134.846 15.4435 134.76 16.8524H122.016C122.016 18.2067 122.537 19.5282 123.243 20.2381ZM128.871 10.9546C128.252 10.3321 127.285 9.98257 126.144 9.98257C125.351 9.98257 124.743 10.1573 124.21 10.4194C123.678 10.6816 123.243 11.042 122.983 11.3915C122.722 11.741 122.45 12.1888 122.363 12.6256C122.276 13.0625 122.189 13.4229 122.189 13.7724H130.099C129.838 12.4618 129.393 11.5772 128.871 10.9546Z" fill="#2563EB"/>
<path d="M12.3071 -6.10352e-05C13.4479 -6.10352e-05 14.5017 0.0873133 15.4687 0.349436C16.4356 0.524185 17.2287 0.884604 17.9349 1.32148C18.6411 1.75835 19.1626 2.38089 19.5211 3.17818C19.8687 3.97547 20.0534 4.94751 20.0534 6.00692C20.0534 7.24109 19.7927 8.3005 19.1734 9.09779C18.6411 9.89508 17.7719 10.605 16.7072 11.1292C18.2065 11.5661 19.3473 12.3634 20.0426 13.4228C20.7379 14.4822 21.1833 15.8038 21.1833 17.311C21.1833 18.5451 20.9226 19.6046 20.4772 20.4892C20.0426 21.3739 19.3364 22.1712 18.5433 22.6954C17.7502 23.2306 16.7833 23.6675 15.7294 23.9296C14.6756 24.1917 13.6217 24.3665 12.5679 24.3665L0.790894 24.3883V-6.10352e-05H12.3071ZM11.601 9.89508C12.5679 9.89508 13.361 9.63296 13.9694 9.18517C14.5778 8.73737 14.8494 7.951 14.8494 6.97896C14.8494 6.4438 14.7625 5.91955 14.5887 5.57005C14.4148 5.22056 14.1541 4.94751 13.7956 4.68539C13.4479 4.51064 13.0894 4.33589 12.6548 4.24852C12.2202 4.16114 11.7748 4.16114 11.2533 4.16114H6.1579V9.906C6.1579 9.89508 11.601 9.89508 11.601 9.89508ZM11.8617 20.3254C12.3941 20.3254 12.9155 20.238 13.361 20.1506C13.7956 20.0633 14.241 19.8885 14.5887 19.6155C14.9363 19.3424 15.2079 19.0803 15.4687 18.6434C15.6425 18.2066 15.8163 17.6714 15.8163 17.0489C15.8163 15.8147 15.4687 14.93 14.7625 14.3075C14.0563 13.7723 13.0894 13.5102 11.9486 13.5102H6.1579V20.3145H11.8617V20.3254ZM28.8319 20.2379C29.538 20.9479 30.5919 21.2974 31.9934 21.2974C32.9603 21.2974 33.8403 21.0352 34.5465 20.5874C35.2527 20.0523 35.6873 19.528 35.8611 18.9929H40.1634C39.4572 21.1117 38.4034 22.6189 37.0019 23.5909C35.6004 24.4756 33.9273 24.9998 31.9065 24.9998C30.505 24.9998 29.2664 24.7377 28.1257 24.2899C26.9849 23.8531 26.1049 23.2305 25.3118 22.3458C24.5187 21.5486 23.9103 20.5765 23.5518 19.4297C23.1172 18.2829 22.9325 17.0488 22.9325 15.6289C22.9325 14.3074 23.1063 13.0623 23.5518 11.9155C23.9972 10.7688 24.6056 9.79671 25.3987 8.91205C26.1918 8.11476 27.1587 7.40484 28.2126 6.96797C29.3533 6.5311 30.4941 6.25805 31.9065 6.25805C33.4058 6.25805 34.7204 6.52018 35.8611 7.14272C37.0019 7.76526 37.8819 8.46425 38.5881 9.52367C39.2943 10.4957 39.8158 11.6425 40.1743 12.8767C40.3481 14.1108 40.435 15.3559 40.3481 16.7648H27.6042C27.6042 18.2065 28.1257 19.528 28.8319 20.2379ZM34.3727 10.9544C33.7534 10.3319 32.7865 9.98238 31.6457 9.98238C30.8526 9.98238 30.2442 10.1571 29.7119 10.4193C29.1795 10.6814 28.8319 11.0418 28.4842 11.3913C28.1365 11.7408 27.9518 12.1886 27.8649 12.6255C27.778 13.0623 27.6911 13.4227 27.6911 13.7722H35.6004C35.4265 12.4616 34.9811 11.577 34.3727 10.9544ZM26.6373 1.68182H36.4804V4.06277H26.6373V1.68182ZM47.2035 -6.10352e-05V9.18517H47.2904C47.9097 8.12575 48.6919 7.41584 49.6589 6.97896C50.6258 6.54209 51.5058 6.26905 52.4728 6.26905C53.7873 6.26905 54.8412 6.4438 55.6343 6.80421C56.4274 7.15371 57.1336 7.68888 57.5681 8.31142C58.0027 8.93396 58.3612 9.72033 58.5351 10.605C58.7089 11.4897 58.7958 12.4617 58.7958 13.6085V24.4757H53.9612V14.4932C53.9612 12.9859 53.7004 11.9265 53.255 11.2275C52.8095 10.5285 52.0382 10.1572 50.8974 10.1572C49.5828 10.1572 48.6159 10.5941 48.0835 11.304C47.4643 12.1013 47.2035 13.4228 47.2035 15.1922V24.4757H42.3689V-6.10352e-05H47.2035ZM62.3267 9.37096C62.8591 8.57367 63.4675 8.04942 64.2606 7.51425C65.0537 7.07738 65.9337 6.71696 66.9007 6.54221C67.8676 6.36747 68.8345 6.28009 69.8014 6.28009C70.6814 6.28009 71.5615 6.36746 72.5284 6.45484C73.4084 6.54221 74.2884 6.80434 74.9946 7.16476C75.7877 7.51425 76.3092 8.04942 76.8416 8.67196C77.2761 9.29451 77.5477 10.1792 77.5477 11.2386V20.5221C77.5477 21.3194 77.6347 22.1167 77.7216 22.8157C77.8085 23.5256 78.0692 24.1372 78.3408 24.4976H73.4193C73.2455 24.3229 73.1585 23.9625 73.0716 23.7003C72.9847 23.4382 72.9847 23.0778 72.9847 22.8157C72.1916 23.613 71.3116 24.1372 70.2577 24.4976C69.2039 24.8471 68.1501 24.9345 67.0962 24.9345C66.2162 24.9345 65.51 24.8471 64.7278 24.585C64.0216 24.4103 63.4132 24.0498 62.7939 23.613C62.2616 23.1761 61.827 22.6409 61.4793 21.931C61.2186 21.2211 61.0447 20.5221 61.0447 19.5501C61.0447 18.578 61.2186 17.6934 61.5771 17.0708C61.9248 16.4483 62.3702 15.924 62.8917 15.4762C63.424 15.1267 64.1194 14.7663 64.8256 14.5916C65.5317 14.4168 66.2271 14.2421 67.0202 14.1547C67.7263 14.0673 68.4217 13.98 69.1278 13.8926C69.834 13.8052 70.4424 13.7178 70.9748 13.6305C71.5071 13.4557 71.9417 13.281 72.2894 13.0079C72.637 12.7458 72.724 12.3854 72.724 11.8611C72.724 11.326 72.637 10.8891 72.4632 10.627C72.2894 10.3648 72.0286 10.0918 71.757 9.91705C71.4963 9.7423 71.1378 9.65492 70.7901 9.56755C70.4424 9.48017 69.997 9.48018 69.5624 9.48018C68.5955 9.48018 67.8893 9.65492 67.3678 10.1027C66.8355 10.5396 66.4878 11.2495 66.4009 12.1342H61.5662C61.5336 11.042 61.8813 10.07 62.3267 9.37096ZM71.9091 16.2626C71.6484 16.35 71.2899 16.4374 70.9422 16.5247C70.5945 16.6121 70.236 16.6121 69.8014 16.6995C69.4538 16.7869 69.0083 16.7869 68.6607 16.8742C68.313 16.9616 67.9545 17.049 67.6068 17.1363C67.2592 17.2237 66.9007 17.3985 66.7268 17.5732C66.4661 17.748 66.2922 18.0101 66.1076 18.2831C65.8468 18.6326 65.8468 18.9931 65.8468 19.4299C65.8468 19.8668 65.9337 20.2272 66.1076 20.4893C66.2814 20.7515 66.4552 21.0245 66.7268 21.1993C66.9876 21.374 67.3461 21.4614 67.6937 21.5488C68.0414 21.6361 68.3999 21.6361 68.8345 21.6361C69.8014 21.6361 70.5076 21.4614 71.0291 21.1993C71.5615 20.8498 71.9091 20.4893 72.1699 20.0525C72.4306 19.6156 72.6044 19.1678 72.6044 18.7309C72.6914 18.2941 72.6914 17.9336 72.6914 17.6715V15.8148C72.4306 15.9896 72.1699 16.1752 71.9091 16.2626ZM84.8269 6.71696V9.19621H84.9138C85.5331 8.13679 86.3153 7.42688 87.2822 6.99001C88.2492 6.55314 89.303 6.28009 90.2699 6.28009C91.5845 6.28009 92.6384 6.45484 93.4315 6.81526C94.3115 7.16476 94.9307 7.69992 95.3653 8.32246C95.7999 8.94501 96.1584 9.73138 96.4192 10.616C96.593 11.5007 96.6799 12.4727 96.6799 13.6195V24.4867H91.8453V14.5042C91.8453 12.997 91.5845 11.9376 91.1391 11.2386C90.7045 10.5287 89.9114 10.0918 88.6729 10.0918C87.3583 10.0918 86.3913 10.627 85.7721 11.4133C85.1528 12.2106 84.8921 13.5322 84.8921 15.3015V24.585H80.0574V6.71696C80.0791 6.71696 84.8269 6.71696 84.8269 6.71696ZM107.512 9.89514C106.719 9.89514 106.11 10.0699 105.578 10.4303C105.045 10.7798 104.611 11.2276 104.263 11.8392C103.916 12.3744 103.731 12.986 103.557 13.6959C103.383 14.4058 103.383 15.0175 103.383 15.7274C103.383 16.3499 103.47 17.0489 103.557 17.6715C103.731 18.3814 103.905 18.9056 104.263 19.4408C104.611 19.9759 104.969 20.4128 105.491 20.7623C106.023 21.1118 106.632 21.2975 107.425 21.2975C108.566 21.2975 109.446 20.948 110.152 20.3254C110.771 19.7029 111.206 18.8182 111.292 17.6715H115.953C115.606 20.0524 114.726 21.8217 113.226 23.0668C111.727 24.301 109.793 24.9235 107.425 24.9235C106.11 24.9235 104.872 24.6614 103.818 24.2136C102.677 23.7767 101.797 23.1542 101.004 22.3569C100.211 21.5596 99.6024 20.5876 99.157 19.5282C98.7224 18.3814 98.5377 17.2346 98.5377 15.9021C98.5377 14.4932 98.7115 13.2481 99.157 12.1013C99.5916 10.9546 100.124 9.89514 100.917 9.01047C101.71 8.12581 102.677 7.50327 103.731 6.97902C104.872 6.54215 106.099 6.2691 107.512 6.2691C108.566 6.2691 109.532 6.44385 110.499 6.70598C111.466 6.9681 112.346 7.41589 113.053 7.94014C113.846 8.4753 114.454 9.1743 114.899 10.059C115.334 10.8563 115.606 11.9157 115.693 13.0625H110.945C110.76 10.9546 109.619 9.89514 107.512 9.89514ZM123.243 20.2381C123.95 20.948 125.09 21.2975 126.405 21.2975C127.372 21.2975 128.252 21.0354 128.958 20.5876C129.664 20.0525 130.099 19.5282 130.273 18.993H134.488C133.782 21.1119 132.728 22.6191 131.326 23.5911C129.925 24.4758 128.252 25 126.231 25C124.83 25 123.591 24.7379 122.45 24.2901C121.309 23.8532 120.429 23.2307 119.636 22.346C118.843 21.5487 118.235 20.5767 117.876 19.4299C117.442 18.2831 117.257 17.049 117.257 15.6291C117.257 14.3076 117.431 13.0625 117.876 11.9157C118.311 10.7689 118.93 9.7969 119.723 8.91223C120.516 8.11494 121.483 7.40503 122.537 6.96816C123.678 6.53128 124.906 6.25824 126.231 6.25824C127.73 6.25824 129.045 6.52036 130.099 7.1429C131.24 7.76545 132.12 8.46444 132.826 9.52385C133.532 10.4959 134.053 11.6427 134.412 12.8768C134.76 14.111 134.846 15.4435 134.76 16.8524H122.016C122.016 18.2067 122.537 19.5282 123.243 20.2381ZM128.871 10.9546C128.252 10.3321 127.285 9.98257 126.144 9.98257C125.351 9.98257 124.743 10.1573 124.21 10.4194C123.678 10.6816 123.243 11.042 122.983 11.3915C122.722 11.741 122.45 12.1888 122.363 12.6256C122.276 13.0625 122.189 13.4229 122.189 13.7724H130.099C129.838 12.4618 129.393 11.5772 128.871 10.9546Z" fill="#2563EB"/>
<path d="M12.3071 -6.10352e-05C13.4479 -6.10352e-05 14.5017 0.0873133 15.4687 0.349436C16.4356 0.524185 17.2287 0.884604 17.9349 1.32148C18.6411 1.75835 19.1626 2.38089 19.5211 3.17818C19.8687 3.97547 20.0534 4.94751 20.0534 6.00692C20.0534 7.24109 19.7927 8.3005 19.1734 9.09779C18.6411 9.89508 17.7719 10.605 16.7072 11.1292C18.2065 11.5661 19.3473 12.3634 20.0426 13.4228C20.7379 14.4822 21.1833 15.8038 21.1833 17.311C21.1833 18.5451 20.9226 19.6046 20.4772 20.4892C20.0426 21.3739 19.3364 22.1712 18.5433 22.6954C17.7502 23.2306 16.7833 23.6675 15.7294 23.9296C14.6756 24.1917 13.6217 24.3665 12.5679 24.3665L0.790894 24.3883V-6.10352e-05H12.3071ZM11.601 9.89508C12.5679 9.89508 13.361 9.63296 13.9694 9.18517C14.5778 8.73737 14.8494 7.951 14.8494 6.97896C14.8494 6.4438 14.7625 5.91955 14.5887 5.57005C14.4148 5.22056 14.1541 4.94751 13.7956 4.68539C13.4479 4.51064 13.0894 4.33589 12.6548 4.24852C12.2202 4.16114 11.7748 4.16114 11.2533 4.16114H6.1579V9.906C6.1579 9.89508 11.601 9.89508 11.601 9.89508ZM11.8617 20.3254C12.3941 20.3254 12.9155 20.238 13.361 20.1506C13.7956 20.0633 14.241 19.8885 14.5887 19.6155C14.9363 19.3424 15.2079 19.0803 15.4687 18.6434C15.6425 18.2066 15.8163 17.6714 15.8163 17.0489C15.8163 15.8147 15.4687 14.93 14.7625 14.3075C14.0563 13.7723 13.0894 13.5102 11.9486 13.5102H6.1579V20.3145H11.8617V20.3254ZM28.8319 20.2379C29.538 20.9479 30.5919 21.2974 31.9934 21.2974C32.9603 21.2974 33.8403 21.0352 34.5465 20.5874C35.2527 20.0523 35.6873 19.528 35.8611 18.9929H40.1634C39.4572 21.1117 38.4034 22.6189 37.0019 23.5909C35.6004 24.4756 33.9273 24.9998 31.9065 24.9998C30.505 24.9998 29.2664 24.7377 28.1257 24.2899C26.9849 23.8531 26.1049 23.2305 25.3118 22.3458C24.5187 21.5486 23.9103 20.5765 23.5518 19.4297C23.1172 18.2829 22.9325 17.0488 22.9325 15.6289C22.9325 14.3074 23.1063 13.0623 23.5518 11.9155C23.9972 10.7688 24.6056 9.79671 25.3987 8.91205C26.1918 8.11476 27.1587 7.40484 28.2126 6.96797C29.3533 6.5311 30.4941 6.25805 31.9065 6.25805C33.4058 6.25805 34.7204 6.52018 35.8611 7.14272C37.0019 7.76526 37.8819 8.46425 38.5881 9.52367C39.2943 10.4957 39.8158 11.6425 40.1743 12.8767C40.3481 14.1108 40.435 15.3559 40.3481 16.7648H27.6042C27.6042 18.2065 28.1257 19.528 28.8319 20.2379ZM34.3727 10.9544C33.7534 10.3319 32.7865 9.98238 31.6457 9.98238C30.8526 9.98238 30.2442 10.1571 29.7119 10.4193C29.1795 10.6814 28.8319 11.0418 28.4842 11.3913C28.1365 11.7408 27.9518 12.1886 27.8649 12.6255C27.778 13.0623 27.6911 13.4227 27.6911 13.7722H35.6004C35.4265 12.4616 34.9811 11.577 34.3727 10.9544ZM26.6373 1.68182H36.4804V4.06277H26.6373V1.68182ZM47.2035 -6.10352e-05V9.18517H47.2904C47.9097 8.12575 48.6919 7.41584 49.6589 6.97896C50.6258 6.54209 51.5058 6.26905 52.4728 6.26905C53.7873 6.26905 54.8412 6.4438 55.6343 6.80421C56.4274 7.15371 57.1336 7.68888 57.5681 8.31142C58.0027 8.93396 58.3612 9.72033 58.5351 10.605C58.7089 11.4897 58.7958 12.4617 58.7958 13.6085V24.4757H53.9612V14.4932C53.9612 12.9859 53.7004 11.9265 53.255 11.2275C52.8095 10.5285 52.0382 10.1572 50.8974 10.1572C49.5828 10.1572 48.6159 10.5941 48.0835 11.304C47.4643 12.1013 47.2035 13.4228 47.2035 15.1922V24.4757H42.3689V-6.10352e-05H47.2035ZM62.3267 9.37096C62.8591 8.57367 63.4675 8.04942 64.2606 7.51425C65.0537 7.07738 65.9337 6.71696 66.9007 6.54221C67.8676 6.36747 68.8345 6.28009 69.8014 6.28009C70.6814 6.28009 71.5615 6.36746 72.5284 6.45484C73.4084 6.54221 74.2884 6.80434 74.9946 7.16476C75.7877 7.51425 76.3092 8.04942 76.8416 8.67196C77.2761 9.29451 77.5477 10.1792 77.5477 11.2386V20.5221C77.5477 21.3194 77.6347 22.1167 77.7216 22.8157C77.8085 23.5256 78.0692 24.1372 78.3408 24.4976H73.4193C73.2455 24.3229 73.1585 23.9625 73.0716 23.7003C72.9847 23.4382 72.9847 23.0778 72.9847 22.8157C72.1916 23.613 71.3116 24.1372 70.2577 24.4976C69.2039 24.8471 68.1501 24.9345 67.0962 24.9345C66.2162 24.9345 65.51 24.8471 64.7278 24.585C64.0216 24.4103 63.4132 24.0498 62.7939 23.613C62.2616 23.1761 61.827 22.6409 61.4793 21.931C61.2186 21.2211 61.0447 20.5221 61.0447 19.5501C61.0447 18.578 61.2186 17.6934 61.5771 17.0708C61.9248 16.4483 62.3702 15.924 62.8917 15.4762C63.424 15.1267 64.1194 14.7663 64.8256 14.5916C65.5317 14.4168 66.2271 14.2421 67.0202 14.1547C67.7263 14.0673 68.4217 13.98 69.1278 13.8926C69.834 13.8052 70.4424 13.7178 70.9748 13.6305C71.5071 13.4557 71.9417 13.281 72.2894 13.0079C72.637 12.7458 72.724 12.3854 72.724 11.8611C72.724 11.326 72.637 10.8891 72.4632 10.627C72.2894 10.3648 72.0286 10.0918 71.757 9.91705C71.4963 9.7423 71.1378 9.65492 70.7901 9.56755C70.4424 9.48017 69.997 9.48018 69.5624 9.48018C68.5955 9.48018 67.8893 9.65492 67.3678 10.1027C66.8355 10.5396 66.4878 11.2495 66.4009 12.1342H61.5662C61.5336 11.042 61.8813 10.07 62.3267 9.37096ZM71.9091 16.2626C71.6484 16.35 71.2899 16.4374 70.9422 16.5247C70.5945 16.6121 70.236 16.6121 69.8014 16.6995C69.4538 16.7869 69.0083 16.7869 68.6607 16.8742C68.313 16.9616 67.9545 17.049 67.6068 17.1363C67.2592 17.2237 66.9007 17.3985 66.7268 17.5732C66.4661 17.748 66.2922 18.0101 66.1076 18.2831C65.8468 18.6326 65.8468 18.9931 65.8468 19.4299C65.8468 19.8668 65.9337 20.2272 66.1076 20.4893C66.2814 20.7515 66.4552 21.0245 66.7268 21.1993C66.9876 21.374 67.3461 21.4614 67.6937 21.5488C68.0414 21.6361 68.3999 21.6361 68.8345 21.6361C69.8014 21.6361 70.5076 21.4614 71.0291 21.1993C71.5615 20.8498 71.9091 20.4893 72.1699 20.0525C72.4306 19.6156 72.6044 19.1678 72.6044 18.7309C72.6914 18.2941 72.6914 17.9336 72.6914 17.6715V15.8148C72.4306 15.9896 72.1699 16.1752 71.9091 16.2626ZM84.8269 6.71696V9.19621H84.9138C85.5331 8.13679 86.3153 7.42688 87.2822 6.99001C88.2492 6.55314 89.303 6.28009 90.2699 6.28009C91.5845 6.28009 92.6384 6.45484 93.4315 6.81526C94.3115 7.16476 94.9307 7.69992 95.3653 8.32246C95.7999 8.94501 96.1584 9.73138 96.4192 10.616C96.593 11.5007 96.6799 12.4727 96.6799 13.6195V24.4867H91.8453V14.5042C91.8453 12.997 91.5845 11.9376 91.1391 11.2386C90.7045 10.5287 89.9114 10.0918 88.6729 10.0918C87.3583 10.0918 86.3913 10.627 85.7721 11.4133C85.1528 12.2106 84.8921 13.5322 84.8921 15.3015V24.585H80.0574V6.71696C80.0791 6.71696 84.8269 6.71696 84.8269 6.71696ZM107.512 9.89514C106.719 9.89514 106.11 10.0699 105.578 10.4303C105.045 10.7798 104.611 11.2276 104.263 11.8392C103.916 12.3744 103.731 12.986 103.557 13.6959C103.383 14.4058 103.383 15.0175 103.383 15.7274C103.383 16.3499 103.47 17.0489 103.557 17.6715C103.731 18.3814 103.905 18.9056 104.263 19.4408C104.611 19.9759 104.969 20.4128 105.491 20.7623C106.023 21.1118 106.632 21.2975 107.425 21.2975C108.566 21.2975 109.446 20.948 110.152 20.3254C110.771 19.7029 111.206 18.8182 111.292 17.6715H115.953C115.606 20.0524 114.726 21.8217 113.226 23.0668C111.727 24.301 109.793 24.9235 107.425 24.9235C106.11 24.9235 104.872 24.6614 103.818 24.2136C102.677 23.7767 101.797 23.1542 101.004 22.3569C100.211 21.5596 99.6024 20.5876 99.157 19.5282C98.7224 18.3814 98.5377 17.2346 98.5377 15.9021C98.5377 14.4932 98.7115 13.2481 99.157 12.1013C99.5916 10.9546 100.124 9.89514 100.917 9.01047C101.71 8.12581 102.677 7.50327 103.731 6.97902C104.872 6.54215 106.099 6.2691 107.512 6.2691C108.566 6.2691 109.532 6.44385 110.499 6.70598C111.466 6.9681 112.346 7.41589 113.053 7.94014C113.846 8.4753 114.454 9.1743 114.899 10.059C115.334 10.8563 115.606 11.9157 115.693 13.0625H110.945C110.76 10.9546 109.619 9.89514 107.512 9.89514ZM123.243 20.2381C123.95 20.948 125.09 21.2975 126.405 21.2975C127.372 21.2975 128.252 21.0354 128.958 20.5876C129.664 20.0525 130.099 19.5282 130.273 18.993H134.488C133.782 21.1119 132.728 22.6191 131.326 23.5911C129.925 24.4758 128.252 25 126.231 25C124.83 25 123.591 24.7379 122.45 24.2901C121.309 23.8532 120.429 23.2307 119.636 22.346C118.843 21.5487 118.235 20.5767 117.876 19.4299C117.442 18.2831 117.257 17.049 117.257 15.6291C117.257 14.3076 117.431 13.0625 117.876 11.9157C118.311 10.7689 118.93 9.7969 119.723 8.91223C120.516 8.11494 121.483 7.40503 122.537 6.96816C123.678 6.53128 124.906 6.25824 126.231 6.25824C127.73 6.25824 129.045 6.52036 130.099 7.1429C131.24 7.76545 132.12 8.46444 132.826 9.52385C133.532 10.4959 134.053 11.6427 134.412 12.8768C134.76 14.111 134.846 15.4435 134.76 16.8524H122.016C122.016 18.2067 122.537 19.5282 123.243 20.2381ZM128.871 10.9546C128.252 10.3321 127.285 9.98257 126.144 9.98257C125.351 9.98257 124.743 10.1573 124.21 10.4194C123.678 10.6816 123.243 11.042 122.983 11.3915C122.722 11.741 122.45 12.1888 122.363 12.6256C122.276 13.0625 122.189 13.4229 122.189 13.7724H130.099C129.838 12.4618 129.393 11.5772 128.871 10.9546Z" fill="#2563EB"/>
<path d="M12.3071 -6.10352e-05C13.4479 -6.10352e-05 14.5017 0.0873133 15.4687 0.349436C16.4356 0.524185 17.2287 0.884604 17.9349 1.32148C18.6411 1.75835 19.1626 2.38089 19.5211 3.17818C19.8687 3.97547 20.0534 4.94751 20.0534 6.00692C20.0534 7.24109 19.7927 8.3005 19.1734 9.09779C18.6411 9.89508 17.7719 10.605 16.7072 11.1292C18.2065 11.5661 19.3473 12.3634 20.0426 13.4228C20.7379 14.4822 21.1833 15.8038 21.1833 17.311C21.1833 18.5451 20.9226 19.6046 20.4772 20.4892C20.0426 21.3739 19.3364 22.1712 18.5433 22.6954C17.7502 23.2306 16.7833 23.6675 15.7294 23.9296C14.6756 24.1917 13.6217 24.3665 12.5679 24.3665L0.790894 24.3883V-6.10352e-05H12.3071ZM11.601 9.89508C12.5679 9.89508 13.361 9.63296 13.9694 9.18517C14.5778 8.73737 14.8494 7.951 14.8494 6.97896C14.8494 6.4438 14.7625 5.91955 14.5887 5.57005C14.4148 5.22056 14.1541 4.94751 13.7956 4.68539C13.4479 4.51064 13.0894 4.33589 12.6548 4.24852C12.2202 4.16114 11.7748 4.16114 11.2533 4.16114H6.1579V9.906C6.1579 9.89508 11.601 9.89508 11.601 9.89508ZM11.8617 20.3254C12.3941 20.3254 12.9155 20.238 13.361 20.1506C13.7956 20.0633 14.241 19.8885 14.5887 19.6155C14.9363 19.3424 15.2079 19.0803 15.4687 18.6434C15.6425 18.2066 15.8163 17.6714 15.8163 17.0489C15.8163 15.8147 15.4687 14.93 14.7625 14.3075C14.0563 13.7723 13.0894 13.5102 11.9486 13.5102H6.1579V20.3145H11.8617V20.3254ZM28.8319 20.2379C29.538 20.9479 30.5919 21.2974 31.9934 21.2974C32.9603 21.2974 33.8403 21.0352 34.5465 20.5874C35.2527 20.0523 35.6873 19.528 35.8611 18.9929H40.1634C39.4572 21.1117 38.4034 22.6189 37.0019 23.5909C35.6004 24.4756 33.9273 24.9998 31.9065 24.9998C30.505 24.9998 29.2664 24.7377 28.1257 24.2899C26.9849 23.8531 26.1049 23.2305 25.3118 22.3458C24.5187 21.5486 23.9103 20.5765 23.5518 19.4297C23.1172 18.2829 22.9325 17.0488 22.9325 15.6289C22.9325 14.3074 23.1063 13.0623 23.5518 11.9155C23.9972 10.7688 24.6056 9.79671 25.3987 8.91205C26.1918 8.11476 27.1587 7.40484 28.2126 6.96797C29.3533 6.5311 30.4941 6.25805 31.9065 6.25805C33.4058 6.25805 34.7204 6.52018 35.8611 7.14272C37.0019 7.76526 37.8819 8.46425 38.5881 9.52367C39.2943 10.4957 39.8158 11.6425 40.1743 12.8767C40.3481 14.1108 40.435 15.3559 40.3481 16.7648H27.6042C27.6042 18.2065 28.1257 19.528 28.8319 20.2379ZM34.3727 10.9544C33.7534 10.3319 32.7865 9.98238 31.6457 9.98238C30.8526 9.98238 30.2442 10.1571 29.7119 10.4193C29.1795 10.6814 28.8319 11.0418 28.4842 11.3913C28.1365 11.7408 27.9518 12.1886 27.8649 12.6255C27.778 13.0623 27.6911 13.4227 27.6911 13.7722H35.6004C35.4265 12.4616 34.9811 11.577 34.3727 10.9544ZM26.6373 1.68182H36.4804V4.06277H26.6373V1.68182ZM47.2035 -6.10352e-05V9.18517H47.2904C47.9097 8.12575 48.6919 7.41584 49.6589 6.97896C50.6258 6.54209 51.5058 6.26905 52.4728 6.26905C53.7873 6.26905 54.8412 6.4438 55.6343 6.80421C56.4274 7.15371 57.1336 7.68888 57.5681 8.31142C58.0027 8.93396 58.3612 9.72033 58.5351 10.605C58.7089 11.4897 58.7958 12.4617 58.7958 13.6085V24.4757H53.9612V14.4932C53.9612 12.9859 53.7004 11.9265 53.255 11.2275C52.8095 10.5285 52.0382 10.1572 50.8974 10.1572C49.5828 10.1572 48.6159 10.5941 48.0835 11.304C47.4643 12.1013 47.2035 13.4228 47.2035 15.1922V24.4757H42.3689V-6.10352e-05H47.2035ZM62.3267 9.37096C62.8591 8.57367 63.4675 8.04942 64.2606 7.51425C65.0537 7.07738 65.9337 6.71696 66.9007 6.54221C67.8676 6.36747 68.8345 6.28009 69.8014 6.28009C70.6814 6.28009 71.5615 6.36746 72.5284 6.45484C73.4084 6.54221 74.2884 6.80434 74.9946 7.16476C75.7877 7.51425 76.3092 8.04942 76.8416 8.67196C77.2761 9.29451 77.5477 10.1792 77.5477 11.2386V20.5221C77.5477 21.3194 77.6347 22.1167 77.7216 22.8157C77.8085 23.5256 78.0692 24.1372 78.3408 24.4976H73.4193C73.2455 24.3229 73.1585 23.9625 73.0716 23.7003C72.9847 23.4382 72.9847 23.0778 72.9847 22.8157C72.1916 23.613 71.3116 24.1372 70.2577 24.4976C69.2039 24.8471 68.1501 24.9345 67.0962 24.9345C66.2162 24.9345 65.51 24.8471 64.7278 24.585C64.0216 24.4103 63.4132 24.0498 62.7939 23.613C62.2616 23.1761 61.827 22.6409 61.4793 21.931C61.2186 21.2211 61.0447 20.5221 61.0447 19.5501C61.0447 18.578 61.2186 17.6934 61.5771 17.0708C61.9248 16.4483 62.3702 15.924 62.8917 15.4762C63.424 15.1267 64.1194 14.7663 64.8256 14.5916C65.5317 14.4168 66.2271 14.2421 67.0202 14.1547C67.7263 14.0673 68.4217 13.98 69.1278 13.8926C69.834 13.8052 70.4424 13.7178 70.9748 13.6305C71.5071 13.4557 71.9417 13.281 72.2894 13.0079C72.637 12.7458 72.724 12.3854 72.724 11.8611C72.724 11.326 72.637 10.8891 72.4632 10.627C72.2894 10.3648 72.0286 10.0918 71.757 9.91705C71.4963 9.7423 71.1378 9.65492 70.7901 9.56755C70.4424 9.48017 69.997 9.48018 69.5624 9.48018C68.5955 9.48018 67.8893 9.65492 67.3678 10.1027C66.8355 10.5396 66.4878 11.2495 66.4009 12.1342H61.5662C61.5336 11.042 61.8813 10.07 62.3267 9.37096ZM71.9091 16.2626C71.6484 16.35 71.2899 16.4374 70.9422 16.5247C70.5945 16.6121 70.236 16.6121 69.8014 16.6995C69.4538 16.7869 69.0083 16.7869 68.6607 16.8742C68.313 16.9616 67.9545 17.049 67.6068 17.1363C67.2592 17.2237 66.9007 17.3985 66.7268 17.5732C66.4661 17.748 66.2922 18.0101 66.1076 18.2831C65.8468 18.6326 65.8468 18.9931 65.8468 19.4299C65.8468 19.8668 65.9337 20.2272 66.1076 20.4893C66.2814 20.7515 66.4552 21.0245 66.7268 21.1993C66.9876 21.374 67.3461 21.4614 67.6937 21.5488C68.0414 21.6361 68.3999 21.6361 68.8345 21.6361C69.8014 21.6361 70.5076 21.4614 71.0291 21.1993C71.5615 20.8498 71.9091 20.4893 72.1699 20.0525C72.4306 19.6156 72.6044 19.1678 72.6044 18.7309C72.6914 18.2941 72.6914 17.9336 72.6914 17.6715V15.8148C72.4306 15.9896 72.1699 16.1752 71.9091 16.2626ZM84.8269 6.71696V9.19621H84.9138C85.5331 8.13679 86.3153 7.42688 87.2822 6.99001C88.2492 6.55314 89.303 6.28009 90.2699 6.28009C91.5845 6.28009 92.6384 6.45484 93.4315 6.81526C94.3115 7.16476 94.9307 7.69992 95.3653 8.32246C95.7999 8.94501 96.1584 9.73138 96.4192 10.616C96.593 11.5007 96.6799 12.4727 96.6799 13.6195V24.4867H91.8453V14.5042C91.8453 12.997 91.5845 11.9376 91.1391 11.2386C90.7045 10.5287 89.9114 10.0918 88.6729 10.0918C87.3583 10.0918 86.3913 10.627 85.7721 11.4133C85.1528 12.2106 84.8921 13.5322 84.8921 15.3015V24.585H80.0574V6.71696C80.0791 6.71696 84.8269 6.71696 84.8269 6.71696ZM107.512 9.89514C106.719 9.89514 106.11 10.0699 105.578 10.4303C105.045 10.7798 104.611 11.2276 104.263 11.8392C103.916 12.3744 103.731 12.986 103.557 13.6959C103.383 14.4058 103.383 15.0175 103.383 15.7274C103.383 16.3499 103.47 17.0489 103.557 17.6715C103.731 18.3814 103.905 18.9056 104.263 19.4408C104.611 19.9759 104.969 20.4128 105.491 20.7623C106.023 21.1118 106.632 21.2975 107.425 21.2975C108.566 21.2975 109.446 20.948 110.152 20.3254C110.771 19.7029 111.206 18.8182 111.292 17.6715H115.953C115.606 20.0524 114.726 21.8217 113.226 23.0668C111.727 24.301 109.793 24.9235 107.425 24.9235C106.11 24.9235 104.872 24.6614 103.818 24.2136C102.677 23.7767 101.797 23.1542 101.004 22.3569C100.211 21.5596 99.6024 20.5876 99.157 19.5282C98.7224 18.3814 98.5377 17.2346 98.5377 15.9021C98.5377 14.4932 98.7115 13.2481 99.157 12.1013C99.5916 10.9546 100.124 9.89514 100.917 9.01047C101.71 8.12581 102.677 7.50327 103.731 6.97902C104.872 6.54215 106.099 6.2691 107.512 6.2691C108.566 6.2691 109.532 6.44385 110.499 6.70598C111.466 6.9681 112.346 7.41589 113.053 7.94014C113.846 8.4753 114.454 9.1743 114.899 10.059C115.334 10.8563 115.606 11.9157 115.693 13.0625H110.945C110.76 10.9546 109.619 9.89514 107.512 9.89514ZM123.243 20.2381C123.95 20.948 125.09 21.2975 126.405 21.2975C127.372 21.2975 128.252 21.0354 128.958 20.5876C129.664 20.0525 130.099 19.5282 130.273 18.993H134.488C133.782 21.1119 132.728 22.6191 131.326 23.5911C129.925 24.4758 128.252 25 126.231 25C124.83 25 123.591 24.7379 122.45 24.2901C121.309 23.8532 120.429 23.2307 119.636 22.346C118.843 21.5487 118.235 20.5767 117.876 19.4299C117.442 18.2831 117.257 17.049 117.257 15.6291C117.257 14.3076 117.431 13.0625 117.876 11.9157C118.311 10.7689 118.93 9.7969 119.723 8.91223C120.516 8.11494 121.483 7.40503 122.537 6.96816C123.678 6.53128 124.906 6.25824 126.231 6.25824C127.73 6.25824 129.045 6.52036 130.099 7.1429C131.24 7.76545 132.12 8.46444 132.826 9.52385C133.532 10.4959 134.053 11.6427 134.412 12.8768C134.76 14.111 134.846 15.4435 134.76 16.8524H122.016C122.016 18.2067 122.537 19.5282 123.243 20.2381ZM128.871 10.9546C128.252 10.3321 127.285 9.98257 126.144 9.98257C125.351 9.98257 124.743 10.1573 124.21 10.4194C123.678 10.6816 123.243 11.042 122.983 11.3915C122.722 11.741 122.45 12.1888 122.363 12.6256C122.276 13.0625 122.189 13.4229 122.189 13.7724H130.099C129.838 12.4618 129.393 11.5772 128.871 10.9546Z" fill="#2563EB"/>
<path d="M12.3071 -6.10352e-05C13.4479 -6.10352e-05 14.5017 0.0873133 15.4687 0.349436C16.4356 0.524185 17.2287 0.884604 17.9349 1.32148C18.6411 1.75835 19.1626 2.38089 19.5211 3.17818C19.8687 3.97547 20.0534 4.94751 20.0534 6.00692C20.0534 7.24109 19.7927 8.3005 19.1734 9.09779C18.6411 9.89508 17.7719 10.605 16.7072 11.1292C18.2065 11.5661 19.3473 12.3634 20.0426 13.4228C20.7379 14.4822 21.1833 15.8038 21.1833 17.311C21.1833 18.5451 20.9226 19.6046 20.4772 20.4892C20.0426 21.3739 19.3364 22.1712 18.5433 22.6954C17.7502 23.2306 16.7833 23.6675 15.7294 23.9296C14.6756 24.1917 13.6217 24.3665 12.5679 24.3665L0.790894 24.3883V-6.10352e-05H12.3071ZM11.601 9.89508C12.5679 9.89508 13.361 9.63296 13.9694 9.18517C14.5778 8.73737 14.8494 7.951 14.8494 6.97896C14.8494 6.4438 14.7625 5.91955 14.5887 5.57005C14.4148 5.22056 14.1541 4.94751 13.7956 4.68539C13.4479 4.51064 13.0894 4.33589 12.6548 4.24852C12.2202 4.16114 11.7748 4.16114 11.2533 4.16114H6.1579V9.906C6.1579 9.89508 11.601 9.89508 11.601 9.89508ZM11.8617 20.3254C12.3941 20.3254 12.9155 20.238 13.361 20.1506C13.7956 20.0633 14.241 19.8885 14.5887 19.6155C14.9363 19.3424 15.2079 19.0803 15.4687 18.6434C15.6425 18.2066 15.8163 17.6714 15.8163 17.0489C15.8163 15.8147 15.4687 14.93 14.7625 14.3075C14.0563 13.7723 13.0894 13.5102 11.9486 13.5102H6.1579V20.3145H11.8617V20.3254ZM28.8319 20.2379C29.538 20.9479 30.5919 21.2974 31.9934 21.2974C32.9603 21.2974 33.8403 21.0352 34.5465 20.5874C35.2527 20.0523 35.6873 19.528 35.8611 18.9929H40.1634C39.4572 21.1117 38.4034 22.6189 37.0019 23.5909C35.6004 24.4756 33.9273 24.9998 31.9065 24.9998C30.505 24.9998 29.2664 24.7377 28.1257 24.2899C26.9849 23.8531 26.1049 23.2305 25.3118 22.3458C24.5187 21.5486 23.9103 20.5765 23.5518 19.4297C23.1172 18.2829 22.9325 17.0488 22.9325 15.6289C22.9325 14.3074 23.1063 13.0623 23.5518 11.9155C23.9972 10.7688 24.6056 9.79671 25.3987 8.91205C26.1918 8.11476 27.1587 7.40484 28.2126 6.96797C29.3533 6.5311 30.4941 6.25805 31.9065 6.25805C33.4058 6.25805 34.7204 6.52018 35.8611 7.14272C37.0019 7.76526 37.8819 8.46425 38.5881 9.52367C39.2943 10.4957 39.8158 11.6425 40.1743 12.8767C40.3481 14.1108 40.435 15.3559 40.3481 16.7648H27.6042C27.6042 18.2065 28.1257 19.528 28.8319 20.2379ZM34.3727 10.9544C33.7534 10.3319 32.7865 9.98238 31.6457 9.98238C30.8526 9.98238 30.2442 10.1571 29.7119 10.4193C29.1795 10.6814 28.8319 11.0418 28.4842 11.3913C28.1365 11.7408 27.9518 12.1886 27.8649 12.6255C27.778 13.0623 27.6911 13.4227 27.6911 13.7722H35.6004C35.4265 12.4616 34.9811 11.577 34.3727 10.9544ZM26.6373 1.68182H36.4804V4.06277H26.6373V1.68182ZM47.2035 -6.10352e-05V9.18517H47.2904C47.9097 8.12575 48.6919 7.41584 49.6589 6.97896C50.6258 6.54209 51.5058 6.26905 52.4728 6.26905C53.7873 6.26905 54.8412 6.4438 55.6343 6.80421C56.4274 7.15371 57.1336 7.68888 57.5681 8.31142C58.0027 8.93396 58.3612 9.72033 58.5351 10.605C58.7089 11.4897 58.7958 12.4617 58.7958 13.6085V24.4757H53.9612V14.4932C53.9612 12.9859 53.7004 11.9265 53.255 11.2275C52.8095 10.5285 52.0382 10.1572 50.8974 10.1572C49.5828 10.1572 48.6159 10.5941 48.0835 11.304C47.4643 12.1013 47.2035 13.4228 47.2035 15.1922V24.4757H42.3689V-6.10352e-05H47.2035ZM62.3267 9.37096C62.8591 8.57367 63.4675 8.04942 64.2606 7.51425C65.0537 7.07738 65.9337 6.71696 66.9007 6.54221C67.8676 6.36747 68.8345 6.28009 69.8014 6.28009C70.6814 6.28009 71.5615 6.36746 72.5284 6.45484C73.4084 6.54221 74.2884 6.80434 74.9946 7.16476C75.7877 7.51425 76.3092 8.04942 76.8416 8.67196C77.2761 9.29451 77.5477 10.1792 77.5477 11.2386V20.5221C77.5477 21.3194 77.6347 22.1167 77.7216 22.8157C77.8085 23.5256 78.0692 24.1372 78.3408 24.4976H73.4193C73.2455 24.3229 73.1585 23.9625 73.0716 23.7003C72.9847 23.4382 72.9847 23.0778 72.9847 22.8157C72.1916 23.613 71.3116 24.1372 70.2577 24.4976C69.2039 24.8471 68.1501 24.9345 67.0962 24.9345C66.2162 24.9345 65.51 24.8471 64.7278 24.585C64.0216 24.4103 63.4132 24.0498 62.7939 23.613C62.2616 23.1761 61.827 22.6409 61.4793 21.931C61.2186 21.2211 61.0447 20.5221 61.0447 19.5501C61.0447 18.578 61.2186 17.6934 61.5771 17.0708C61.9248 16.4483 62.3702 15.924 62.8917 15.4762C63.424 15.1267 64.1194 14.7663 64.8256 14.5916C65.5317 14.4168 66.2271 14.2421 67.0202 14.1547C67.7263 14.0673 68.4217 13.98 69.1278 13.8926C69.834 13.8052 70.4424 13.7178 70.9748 13.6305C71.5071 13.4557 71.9417 13.281 72.2894 13.0079C72.637 12.7458 72.724 12.3854 72.724 11.8611C72.724 11.326 72.637 10.8891 72.4632 10.627C72.2894 10.3648 72.0286 10.0918 71.757 9.91705C71.4963 9.7423 71.1378 9.65492 70.7901 9.56755C70.4424 9.48017 69.997 9.48018 69.5624 9.48018C68.5955 9.48018 67.8893 9.65492 67.3678 10.1027C66.8355 10.5396 66.4878 11.2495 66.4009 12.1342H61.5662C61.5336 11.042 61.8813 10.07 62.3267 9.37096ZM71.9091 16.2626C71.6484 16.35 71.2899 16.4374 70.9422 16.5247C70.5945 16.6121 70.236 16.6121 69.8014 16.6995C69.4538 16.7869 69.0083 16.7869 68.6607 16.8742C68.313 16.9616 67.9545 17.049 67.6068 17.1363C67.2592 17.2237 66.9007 17.3985 66.7268 17.5732C66.4661 17.748 66.2922 18.0101 66.1076 18.2831C65.8468 18.6326 65.8468 18.9931 65.8468 19.4299C65.8468 19.8668 65.9337 20.2272 66.1076 20.4893C66.2814 20.7515 66.4552 21.0245 66.7268 21.1993C66.9876 21.374 67.3461 21.4614 67.6937 21.5488C68.0414 21.6361 68.3999 21.6361 68.8345 21.6361C69.8014 21.6361 70.5076 21.4614 71.0291 21.1993C71.5615 20.8498 71.9091 20.4893 72.1699 20.0525C72.4306 19.6156 72.6044 19.1678 72.6044 18.7309C72.6914 18.2941 72.6914 17.9336 72.6914 17.6715V15.8148C72.4306 15.9896 72.1699 16.1752 71.9091 16.2626ZM84.8269 6.71696V9.19621H84.9138C85.5331 8.13679 86.3153 7.42688 87.2822 6.99001C88.2492 6.55314 89.303 6.28009 90.2699 6.28009C91.5845 6.28009 92.6384 6.45484 93.4315 6.81526C94.3115 7.16476 94.9307 7.69992 95.3653 8.32246C95.7999 8.94501 96.1584 9.73138 96.4192 10.616C96.593 11.5007 96.6799 12.4727 96.6799 13.6195V24.4867H91.8453V14.5042C91.8453 12.997 91.5845 11.9376 91.1391 11.2386C90.7045 10.5287 89.9114 10.0918 88.6729 10.0918C87.3583 10.0918 86.3913 10.627 85.7721 11.4133C85.1528 12.2106 84.8921 13.5322 84.8921 15.3015V24.585H80.0574V6.71696C80.0791 6.71696 84.8269 6.71696 84.8269 6.71696ZM107.512 9.89514C106.719 9.89514 106.11 10.0699 105.578 10.4303C105.045 10.7798 104.611 11.2276 104.263 11.8392C103.916 12.3744 103.731 12.986 103.557 13.6959C103.383 14.4058 103.383 15.0175 103.383 15.7274C103.383 16.3499 103.47 17.0489 103.557 17.6715C103.731 18.3814 103.905 18.9056 104.263 19.4408C104.611 19.9759 104.969 20.4128 105.491 20.7623C106.023 21.1118 106.632 21.2975 107.425 21.2975C108.566 21.2975 109.446 20.948 110.152 20.3254C110.771 19.7029 111.206 18.8182 111.292 17.6715H115.953C115.606 20.0524 114.726 21.8217 113.226 23.0668C111.727 24.301 109.793 24.9235 107.425 24.9235C106.11 24.9235 104.872 24.6614 103.818 24.2136C102.677 23.7767 101.797 23.1542 101.004 22.3569C100.211 21.5596 99.6024 20.5876 99.157 19.5282C98.7224 18.3814 98.5377 17.2346 98.5377 15.9021C98.5377 14.4932 98.7115 13.2481 99.157 12.1013C99.5916 10.9546 100.124 9.89514 100.917 9.01047C101.71 8.12581 102.677 7.50327 103.731 6.97902C104.872 6.54215 106.099 6.2691 107.512 6.2691C108.566 6.2691 109.532 6.44385 110.499 6.70598C111.466 6.9681 112.346 7.41589 113.053 7.94014C113.846 8.4753 114.454 9.1743 114.899 10.059C115.334 10.8563 115.606 11.9157 115.693 13.0625H110.945C110.76 10.9546 109.619 9.89514 107.512 9.89514ZM123.243 20.2381C123.95 20.948 125.09 21.2975 126.405 21.2975C127.372 21.2975 128.252 21.0354 128.958 20.5876C129.664 20.0525 130.099 19.5282 130.273 18.993H134.488C133.782 21.1119 132.728 22.6191 131.326 23.5911C129.925 24.4758 128.252 25 126.231 25C124.83 25 123.591 24.7379 122.45 24.2901C121.309 23.8532 120.429 23.2307 119.636 22.346C118.843 21.5487 118.235 20.5767 117.876 19.4299C117.442 18.2831 117.257 17.049 117.257 15.6291C117.257 14.3076 117.431 13.0625 117.876 11.9157C118.311 10.7689 118.93 9.7969 119.723 8.91223C120.516 8.11494 121.483 7.40503 122.537 6.96816C123.678 6.53128 124.906 6.25824 126.231 6.25824C127.73 6.25824 129.045 6.52036 130.099 7.1429C131.24 7.76545 132.12 8.46444 132.826 9.52385C133.532 10.4959 134.053 11.6427 134.412 12.8768C134.76 14.111 134.846 15.4435 134.76 16.8524H122.016C122.016 18.2067 122.537 19.5282 123.243 20.2381ZM128.871 10.9546C128.252 10.3321 127.285 9.98257 126.144 9.98257C125.351 9.98257 124.743 10.1573 124.21 10.4194C123.678 10.6816 123.243 11.042 122.983 11.3915C122.722 11.741 122.45 12.1888 122.363 12.6256C122.276 13.0625 122.189 13.4229 122.189 13.7724H130.099C129.838 12.4618 129.393 11.5772 128.871 10.9546Z" fill="#2563EB"/>
</svg>
