<svg width="123" height="31" viewBox="0 0 123 31" fill="none" xmlns="http://www.w3.org/2000/svg">
<path fill-rule="evenodd" clip-rule="evenodd" d="M121.494 21.2748C121.113 20.9993 120.811 20.9599 120.562 21.4848C116.284 30.7355 109.081 26.1167 109.802 26.5235C111.403 25.7887 115.602 22.4295 114.972 17.7713C114.592 14.9239 112.151 13.6642 109.553 14.1235C105.026 14.9108 103.373 19.7921 104.212 24.1091C104.357 24.8571 104.619 25.4607 104.895 26.0643C99.7905 30.2238 97.7568 22.3508 97.5204 21.406C97.5075 21.3535 101.47 18.06 102.572 10.2001C103.727 1.97279 101.103 0.463797 98.4129 0.516283C93.4398 0.608135 92.1012 10.9874 93.8988 19.6346C93.7545 19.674 93.0459 20.0676 91.9176 20.107C91.104 17.5483 87.6267 15.3045 86.7213 16.1705C84.4512 18.3356 87.2724 22.5607 89.2671 22.8888C88.0728 30.2501 80.5935 28.4262 81.9843 19.2016C84.4119 14.6877 86.2752 7.95629 85.9341 3.90167C85.8159 2.47142 84.753 0.542527 82.3518 0.634379C77.733 0.818084 77.2344 11.1973 77.7723 18.5718C77.7462 18.388 77.4837 19.464 75.594 20.002C75.1479 17.522 71.1459 15.0158 70.2012 16.223C68.4429 18.4668 71.5002 22.4689 72.9435 22.7445C71.7495 30.1057 64.2702 28.2818 65.661 19.0573C68.1018 14.5434 69.9519 7.82507 69.6237 3.77048C69.5058 2.3402 68.4429 0.41131 66.0414 0.503162C61.4226 0.686866 60.924 11.0661 61.4622 18.4405C61.4358 18.2568 61.1733 19.3722 59.205 19.897C59.1396 16.6691 55.1244 15.1995 54.1533 16.223C52.4343 18.06 54.5469 21.8259 56.502 22.7445C55.308 30.1057 47.8287 28.2818 49.2195 19.0573C51.6471 14.5434 53.5104 7.81196 53.1693 3.75734C53.0643 2.3402 52.0014 0.41131 49.5999 0.503162C44.9811 0.686866 44.6139 11.591 45.1518 18.9654C43.6296 25.4869 38.5254 33.6224 39.1944 17.3121C39.2601 16.1705 39.3258 15.7375 38.7615 15.3045C38.3286 14.9764 37.3575 15.1339 36.8325 15.147C36.1896 15.1732 36.0192 15.5538 35.8878 16.118C35.5599 17.5876 35.4942 19.0179 35.4417 20.973C35.4156 21.8915 35.3367 22.3114 34.9824 23.558C34.6281 24.8046 32.6337 27.0746 31.5315 26.6941C30.0093 26.1692 30.5079 21.8784 30.7965 18.926C31.0329 16.5904 30.2718 15.5538 28.3298 15.1732C27.1882 14.9371 26.4927 14.9764 25.3118 14.5959C24.1833 14.2416 23.934 12.1159 21.5459 12.8245C20.2337 13.2181 21.0735 15.9868 20.7585 18.0469C19.2102 28.1637 15.9954 28.4393 14.4995 23.5318C21.2178 7.05089 16.4284 0.555649 13.6334 0.555649C10.7204 0.555649 7.38753 2.56327 8.79153 15.4225C8.10921 15.2257 7.89927 15.1207 7.1382 15.1207C2.8999 15.1076 0 18.5455 0 22.7838C0 27.0221 2.8999 30.46 7.15134 30.46C9.65757 30.46 11.4159 29.3184 12.7543 27.5601C13.6203 28.8067 14.6832 30.4863 16.6252 30.4075C22.3987 30.1845 24.0783 18.3356 24.2752 17.6664C24.8919 17.7582 25.4824 17.9419 26.0466 18.0338C26.9914 18.1781 27.0701 18.5586 27.0438 19.5034C26.7945 27.5601 28.2773 30.3813 31.6497 30.3813C33.5259 30.3813 35.2056 28.5311 36.3603 27.219C37.2264 29.0035 38.5908 30.3288 40.4412 30.3813C44.9025 30.4863 46.6215 23.3743 46.464 24.3059C46.3458 25.0408 47.9073 30.3288 52.5132 30.355C58.2078 30.3813 59.2707 24.1222 59.3889 23.0725C59.4021 22.8625 59.415 22.8888 59.3889 23.0725C59.3889 23.0856 59.3889 23.1119 59.3889 23.1381C61.1997 22.7969 62.1312 21.8391 62.1312 21.8391C62.1312 21.8391 63.5877 30.46 68.9547 30.3682C74.5314 30.2632 75.594 24.6077 75.7254 23.5055C75.7386 23.2431 75.7515 23.2693 75.7254 23.5055C75.7254 23.5186 75.7254 23.5318 75.7254 23.5318C77.8773 22.7445 78.4416 21.9703 78.4416 21.9703C78.4416 21.9703 79.5963 30.4207 85.2648 30.4994C90.3168 30.5651 92.193 25.3819 92.2062 23.2168C93.0591 23.23 94.6338 22.7051 94.5945 22.6789C94.5945 22.6789 96.4446 30.0664 101.614 30.4469C104.042 30.6305 105.866 29.0822 106.903 28.3737C109.343 30.355 117.466 32.8745 122.596 24.1747C123.331 22.9413 121.769 21.4585 121.494 21.2748ZM6.94137 27.5864C4.46139 27.5864 2.87365 25.2901 2.87365 22.8232C2.87365 20.3563 4.33017 18.06 6.81018 18.06C7.92552 18.06 8.54223 18.1781 9.42138 18.9392C9.57885 19.5559 10.025 20.9862 10.2481 21.6422C10.5367 22.5083 10.891 23.2562 11.2322 24.0566C10.7204 26.1298 9.09333 27.5864 6.94137 27.5864ZM12.9774 19.0048C12.8724 18.8342 12.8986 18.9392 12.7805 18.7817C12.3344 17.5483 11.4553 14.7927 11.3503 11.6566C11.2322 8.11376 11.8227 3.95417 13.5678 3.95417C14.7488 3.95417 16.0085 12.3783 12.9774 19.0048ZM47.8941 15.3176C47.6187 13.2181 47.6055 3.83609 49.8495 4.0985C51.096 4.59713 49.062 13.4412 47.8941 15.3176ZM64.3356 15.3176C64.0602 13.2181 64.047 3.83609 66.291 4.0985C67.5375 4.59713 65.5035 13.4412 64.3356 15.3176ZM80.646 15.4488C80.3703 13.3493 80.3574 3.96728 82.6011 4.22972C83.8476 4.71524 81.8139 13.5724 80.646 15.4488ZM98.649 3.53429C100.709 3.32433 100.617 12.3127 96.4971 17.9813C95.9589 15.9343 95.1456 4.24286 98.649 3.53429ZM107.309 22.8888C106.653 19.5428 108.359 17.3514 110.117 17.1152C110.734 17.0234 111.626 17.417 111.797 18.165C112.086 19.569 111.757 21.6553 107.808 24.2928C107.821 24.3059 107.454 23.6236 107.309 22.8888ZM37.515 12.5751C38.919 12.5751 40.0605 11.4335 40.0605 10.0295C40.0605 8.6255 38.919 7.48391 37.515 7.48391C36.111 7.48391 34.9692 8.6255 34.9692 10.0295C34.9692 11.4335 36.111 12.5751 37.515 12.5751Z" fill="#2563EB"/>
</svg>
