<svg width="124" height="31" viewBox="0 0 124 31" fill="none" xmlns="http://www.w3.org/2000/svg">
<path d="M122.062 28.5817C122.138 28.5825 122.213 28.5677 122.282 28.5383C122.352 28.5089 122.415 28.4656 122.467 28.4109C122.519 28.3563 122.559 28.2915 122.585 28.2206C122.612 28.1498 122.623 28.0743 122.618 27.9989C122.618 27.5856 122.369 27.3881 121.856 27.3881H121.029V29.5521H121.34V28.6088H121.723L121.731 28.6203L122.325 29.5521H122.658L122.019 28.5877L122.062 28.5817ZM121.702 28.3649H121.341V27.6334H121.799C122.035 27.6334 122.304 27.672 122.304 27.981C122.304 28.3365 122.032 28.3649 121.7 28.3649M0.790894 4.921H5.38574V21.6372H13.8922V25.8722H0.790894V4.921ZM15.9236 11.6667H20.3377V25.8644H15.9236V11.6667ZM18.1306 4.60823C18.6371 4.60832 19.1321 4.75839 19.5531 5.03947C19.9742 5.32054 20.3023 5.72 20.496 6.18733C20.6898 6.65465 20.7404 7.16886 20.6416 7.66494C20.5427 8.16101 20.2988 8.61666 19.9407 8.97429C19.5826 9.33191 19.1263 9.57544 18.6296 9.67409C18.1329 9.77273 17.618 9.72206 17.1501 9.52847C16.6823 9.33489 16.2824 9.00709 16.001 8.58652C15.7197 8.16596 15.5695 7.67151 15.5695 7.16571C15.5695 6.82982 15.6358 6.49722 15.7645 6.1869C15.8932 5.87658 16.0819 5.59463 16.3197 5.35714C16.5575 5.11965 16.8399 4.93128 17.1506 4.80278C17.4613 4.67428 17.7943 4.60817 18.1306 4.60823ZM38.8026 4.91777H43.2167V17.4388L48.2194 11.6603H53.6314L47.8378 18.2333L53.5095 25.8704H47.9615L43.2756 18.8523H43.2177V25.8695H38.8035L38.8026 4.91777ZM22.7853 11.6681H27.0242V13.6083H27.0844C27.5078 12.8838 28.1203 12.2878 28.8565 11.8839C29.5926 11.48 30.4248 11.2833 31.2641 11.3149C35.7403 11.3149 36.5643 14.2563 36.5643 18.0776V25.8635H32.1501V18.9607C32.1501 17.313 32.1198 15.195 29.8511 15.195C27.5567 15.195 27.2026 16.9892 27.2026 18.8409V25.8617H22.7885L22.7853 11.6681ZM62.9273 17.1141C62.9357 16.7565 62.8714 16.4008 62.7381 16.0687C62.6049 15.7366 62.4056 15.435 62.1522 15.1821C61.8988 14.9292 61.5966 14.7303 61.264 14.5974C60.9314 14.4646 60.5753 14.4006 60.2172 14.4092C59.4459 14.3613 58.6867 14.618 58.1032 15.124C57.5197 15.63 57.1586 16.3447 57.0979 17.1141H62.9273ZM66.6664 23.4057C65.9329 24.2941 65.0107 25.0084 63.9667 25.497C62.9227 25.9855 61.783 26.236 60.6301 26.2304C56.216 26.2304 52.6819 23.2876 52.6819 18.7307C52.6819 14.1737 56.2155 11.2323 60.6301 11.2323C64.7559 11.2323 67.3432 14.1714 67.3432 18.7307V20.1129H57.0979C57.2254 20.8969 57.6323 21.6084 58.2437 22.1163C58.855 22.6243 59.6295 22.8945 60.4245 22.8771C61.0528 22.8732 61.6702 22.7124 62.2204 22.4094C62.7705 22.1064 63.2361 21.6707 63.5747 21.1421L66.6664 23.4057ZM76.544 15.0986C74.3369 15.0986 73.0126 16.5704 73.0126 18.715C73.0126 20.8597 74.3364 22.3329 76.544 22.3329C78.7515 22.3329 80.0785 20.8633 80.0785 18.715C80.0785 16.5667 78.7538 15.0986 76.544 15.0986ZM84.1423 25.8617H80.0785V23.9788H80.0183C79.5085 24.6637 78.8472 25.2217 78.086 25.6095C77.3248 25.9972 76.4843 26.2042 75.6299 26.2143C71.3886 26.2143 68.5948 23.1572 68.5948 18.834C68.5948 14.8634 71.0672 11.2176 75.1314 11.2176C76.9582 11.2176 78.6646 11.7167 79.6656 13.1004H79.7235V4.91639H84.1418L84.1423 25.8617ZM113.942 25.8699H109.528V18.9658C109.528 17.3194 109.498 15.2 107.232 15.2C104.933 15.2 104.581 16.9938 104.581 18.8459V25.8695H100.167V11.6717H104.405V13.612H104.464C104.888 12.8878 105.501 12.2921 106.237 11.8882C106.973 11.4843 107.805 11.2875 108.645 11.3186C113.119 11.3186 113.944 14.2577 113.944 18.0813L113.942 25.8699ZM95.1864 9.73101C94.6797 9.7311 94.1844 9.58114 93.7631 9.30009C93.3418 9.01905 93.0135 8.61954 92.8195 8.15209C92.6255 7.68463 92.5747 7.17024 92.6734 6.67394C92.7722 6.17764 93.0161 5.72173 93.3743 5.36387C93.7325 5.00601 94.1888 4.76226 94.6857 4.66346C95.1826 4.56465 95.6976 4.61522 96.1657 4.80878C96.6339 5.00233 97.034 5.33018 97.3155 5.75085C97.5971 6.17153 97.7474 6.66614 97.7475 7.17215C97.7475 7.50812 97.6813 7.84082 97.5527 8.15124C97.424 8.46166 97.2354 8.74373 96.9975 8.98134C96.7597 9.21895 96.4773 9.40745 96.1666 9.53608C95.8558 9.66471 95.5228 9.73095 95.1864 9.73101ZM97.3934 25.8699H92.9747V11.6717H97.3934V25.8699ZM116.142 0.520124H90.7566C90.1804 0.51363 89.6252 0.735871 89.213 1.13801C88.8008 1.54015 88.5653 2.08929 88.5583 2.66475V28.1243C88.5651 28.7 88.8004 29.2496 89.2126 29.6521C89.6248 30.0547 90.1801 30.2773 90.7566 30.2712H116.142C116.72 30.2785 117.277 30.0564 117.691 29.6539C118.105 29.2513 118.342 28.7012 118.35 28.1243V2.66292C118.341 2.08631 118.104 1.53655 117.69 1.13442C117.277 0.732287 116.72 0.510682 116.142 0.518286M121.74 26.4242C121.203 26.4294 120.69 26.6467 120.312 27.0287C119.935 27.4108 119.725 27.9264 119.728 28.4628C119.73 28.9992 119.946 29.5127 120.326 29.8911C120.707 30.2695 121.222 30.4819 121.759 30.4819C122.296 30.4819 122.812 30.2695 123.192 29.8911C123.573 29.5127 123.788 28.9992 123.791 28.4628C123.793 27.9264 123.583 27.4108 123.206 27.0287C122.829 26.6467 122.316 26.4294 121.779 26.4242H121.74ZM121.74 30.2496C121.387 30.2555 121.041 30.1569 120.745 29.9663C120.449 29.7757 120.216 29.5017 120.076 29.1789C119.936 28.8561 119.894 28.499 119.957 28.1528C120.02 27.8066 120.185 27.4868 120.43 27.2339C120.675 26.981 120.989 26.8063 121.334 26.7319C121.678 26.6575 122.037 26.6868 122.364 26.816C122.692 26.9453 122.974 27.1686 123.174 27.4579C123.375 27.7472 123.485 28.0894 123.491 28.4412C123.491 28.4513 123.491 28.4609 123.491 28.471C123.501 28.9325 123.327 29.3791 123.007 29.7125C122.687 30.0458 122.248 30.2387 121.786 30.2487H121.74" fill="#2563EB"/>
<path d="M122.062 28.5817C122.138 28.5825 122.213 28.5677 122.282 28.5383C122.352 28.5089 122.415 28.4656 122.467 28.4109C122.519 28.3563 122.559 28.2915 122.585 28.2206C122.612 28.1498 122.623 28.0743 122.618 27.9989C122.618 27.5856 122.369 27.3881 121.856 27.3881H121.029V29.5521H121.34V28.6088H121.723L121.731 28.6203L122.325 29.5521H122.658L122.019 28.5877L122.062 28.5817ZM121.702 28.3649H121.341V27.6334H121.799C122.035 27.6334 122.304 27.672 122.304 27.981C122.304 28.3365 122.032 28.3649 121.7 28.3649M0.790894 4.921H5.38574V21.6372H13.8922V25.8722H0.790894V4.921ZM15.9236 11.6667H20.3377V25.8644H15.9236V11.6667ZM18.1306 4.60823C18.6371 4.60832 19.1321 4.75839 19.5531 5.03947C19.9742 5.32054 20.3023 5.72 20.496 6.18733C20.6898 6.65465 20.7404 7.16886 20.6416 7.66494C20.5427 8.16101 20.2988 8.61666 19.9407 8.97429C19.5826 9.33191 19.1263 9.57544 18.6296 9.67409C18.1329 9.77273 17.618 9.72206 17.1501 9.52847C16.6823 9.33489 16.2824 9.00709 16.001 8.58652C15.7197 8.16596 15.5695 7.67151 15.5695 7.16571C15.5695 6.82982 15.6358 6.49722 15.7645 6.1869C15.8932 5.87658 16.0819 5.59463 16.3197 5.35714C16.5575 5.11965 16.8399 4.93128 17.1506 4.80278C17.4613 4.67428 17.7943 4.60817 18.1306 4.60823ZM38.8026 4.91777H43.2167V17.4388L48.2194 11.6603H53.6314L47.8378 18.2333L53.5095 25.8704H47.9615L43.2756 18.8523H43.2177V25.8695H38.8035L38.8026 4.91777ZM22.7853 11.6681H27.0242V13.6083H27.0844C27.5078 12.8838 28.1203 12.2878 28.8565 11.8839C29.5926 11.48 30.4248 11.2833 31.2641 11.3149C35.7403 11.3149 36.5643 14.2563 36.5643 18.0776V25.8635H32.1501V18.9607C32.1501 17.313 32.1198 15.195 29.8511 15.195C27.5567 15.195 27.2026 16.9892 27.2026 18.8409V25.8617H22.7885L22.7853 11.6681ZM62.9273 17.1141C62.9357 16.7565 62.8714 16.4008 62.7381 16.0687C62.6049 15.7366 62.4056 15.435 62.1522 15.1821C61.8988 14.9292 61.5966 14.7303 61.264 14.5974C60.9314 14.4646 60.5753 14.4006 60.2172 14.4092C59.4459 14.3613 58.6867 14.618 58.1032 15.124C57.5197 15.63 57.1586 16.3447 57.0979 17.1141H62.9273ZM66.6664 23.4057C65.9329 24.2941 65.0107 25.0084 63.9667 25.497C62.9227 25.9855 61.783 26.236 60.6301 26.2304C56.216 26.2304 52.6819 23.2876 52.6819 18.7307C52.6819 14.1737 56.2155 11.2323 60.6301 11.2323C64.7559 11.2323 67.3432 14.1714 67.3432 18.7307V20.1129H57.0979C57.2254 20.8969 57.6323 21.6084 58.2437 22.1163C58.855 22.6243 59.6295 22.8945 60.4245 22.8771C61.0528 22.8732 61.6702 22.7124 62.2204 22.4094C62.7705 22.1064 63.2361 21.6707 63.5747 21.1421L66.6664 23.4057ZM76.544 15.0986C74.3369 15.0986 73.0126 16.5704 73.0126 18.715C73.0126 20.8597 74.3364 22.3329 76.544 22.3329C78.7515 22.3329 80.0785 20.8633 80.0785 18.715C80.0785 16.5667 78.7538 15.0986 76.544 15.0986ZM84.1423 25.8617H80.0785V23.9788H80.0183C79.5085 24.6637 78.8472 25.2217 78.086 25.6095C77.3248 25.9972 76.4843 26.2042 75.6299 26.2143C71.3886 26.2143 68.5948 23.1572 68.5948 18.834C68.5948 14.8634 71.0672 11.2176 75.1314 11.2176C76.9582 11.2176 78.6646 11.7167 79.6656 13.1004H79.7235V4.91639H84.1418L84.1423 25.8617ZM113.942 25.8699H109.528V18.9658C109.528 17.3194 109.498 15.2 107.232 15.2C104.933 15.2 104.581 16.9938 104.581 18.8459V25.8695H100.167V11.6717H104.405V13.612H104.464C104.888 12.8878 105.501 12.2921 106.237 11.8882C106.973 11.4843 107.805 11.2875 108.645 11.3186C113.119 11.3186 113.944 14.2577 113.944 18.0813L113.942 25.8699ZM95.1864 9.73101C94.6797 9.7311 94.1844 9.58114 93.7631 9.30009C93.3418 9.01905 93.0135 8.61954 92.8195 8.15209C92.6255 7.68463 92.5747 7.17024 92.6734 6.67394C92.7722 6.17764 93.0161 5.72173 93.3743 5.36387C93.7325 5.00601 94.1888 4.76226 94.6857 4.66346C95.1826 4.56465 95.6976 4.61522 96.1657 4.80878C96.6339 5.00233 97.034 5.33018 97.3155 5.75085C97.5971 6.17153 97.7474 6.66614 97.7475 7.17215C97.7475 7.50812 97.6813 7.84082 97.5527 8.15124C97.424 8.46166 97.2354 8.74373 96.9975 8.98134C96.7597 9.21895 96.4773 9.40745 96.1666 9.53608C95.8558 9.66471 95.5228 9.73095 95.1864 9.73101ZM97.3934 25.8699H92.9747V11.6717H97.3934V25.8699ZM116.142 0.520124H90.7566C90.1804 0.51363 89.6252 0.735871 89.213 1.13801C88.8008 1.54015 88.5653 2.08929 88.5583 2.66475V28.1243C88.5651 28.7 88.8004 29.2496 89.2126 29.6521C89.6248 30.0547 90.1801 30.2773 90.7566 30.2712H116.142C116.72 30.2785 117.277 30.0564 117.691 29.6539C118.105 29.2513 118.342 28.7012 118.35 28.1243V2.66292C118.341 2.08631 118.104 1.53655 117.69 1.13442C117.277 0.732287 116.72 0.510682 116.142 0.518286M121.74 26.4242C121.203 26.4294 120.69 26.6467 120.312 27.0287C119.935 27.4108 119.725 27.9264 119.728 28.4628C119.73 28.9992 119.946 29.5127 120.326 29.8911C120.707 30.2695 121.222 30.4819 121.759 30.4819C122.296 30.4819 122.812 30.2695 123.192 29.8911C123.573 29.5127 123.788 28.9992 123.791 28.4628C123.793 27.9264 123.583 27.4108 123.206 27.0287C122.829 26.6467 122.316 26.4294 121.779 26.4242H121.74ZM121.74 30.2496C121.387 30.2555 121.041 30.1569 120.745 29.9663C120.449 29.7757 120.216 29.5017 120.076 29.1789C119.936 28.8561 119.894 28.499 119.957 28.1528C120.02 27.8066 120.185 27.4868 120.43 27.2339C120.675 26.981 120.989 26.8063 121.334 26.7319C121.678 26.6575 122.037 26.6868 122.364 26.816C122.692 26.9453 122.974 27.1686 123.174 27.4579C123.375 27.7472 123.485 28.0894 123.491 28.4412C123.491 28.4513 123.491 28.4609 123.491 28.471C123.501 28.9325 123.327 29.3791 123.007 29.7125C122.687 30.0458 122.248 30.2387 121.786 30.2487H121.74" fill="#2563EB"/>
<path d="M122.062 28.5817C122.138 28.5825 122.213 28.5677 122.282 28.5383C122.352 28.5089 122.415 28.4656 122.467 28.4109C122.519 28.3563 122.559 28.2915 122.585 28.2206C122.612 28.1498 122.623 28.0743 122.618 27.9989C122.618 27.5856 122.369 27.3881 121.856 27.3881H121.029V29.5521H121.34V28.6088H121.723L121.731 28.6203L122.325 29.5521H122.658L122.019 28.5877L122.062 28.5817ZM121.702 28.3649H121.341V27.6334H121.799C122.035 27.6334 122.304 27.672 122.304 27.981C122.304 28.3365 122.032 28.3649 121.7 28.3649M0.790894 4.921H5.38574V21.6372H13.8922V25.8722H0.790894V4.921ZM15.9236 11.6667H20.3377V25.8644H15.9236V11.6667ZM18.1306 4.60823C18.6371 4.60832 19.1321 4.75839 19.5531 5.03947C19.9742 5.32054 20.3023 5.72 20.496 6.18733C20.6898 6.65465 20.7404 7.16886 20.6416 7.66494C20.5427 8.16101 20.2988 8.61666 19.9407 8.97429C19.5826 9.33191 19.1263 9.57544 18.6296 9.67409C18.1329 9.77273 17.618 9.72206 17.1501 9.52847C16.6823 9.33489 16.2824 9.00709 16.001 8.58652C15.7197 8.16596 15.5695 7.67151 15.5695 7.16571C15.5695 6.82982 15.6358 6.49722 15.7645 6.1869C15.8932 5.87658 16.0819 5.59463 16.3197 5.35714C16.5575 5.11965 16.8399 4.93128 17.1506 4.80278C17.4613 4.67428 17.7943 4.60817 18.1306 4.60823ZM38.8026 4.91777H43.2167V17.4388L48.2194 11.6603H53.6314L47.8378 18.2333L53.5095 25.8704H47.9615L43.2756 18.8523H43.2177V25.8695H38.8035L38.8026 4.91777ZM22.7853 11.6681H27.0242V13.6083H27.0844C27.5078 12.8838 28.1203 12.2878 28.8565 11.8839C29.5926 11.48 30.4248 11.2833 31.2641 11.3149C35.7403 11.3149 36.5643 14.2563 36.5643 18.0776V25.8635H32.1501V18.9607C32.1501 17.313 32.1198 15.195 29.8511 15.195C27.5567 15.195 27.2026 16.9892 27.2026 18.8409V25.8617H22.7885L22.7853 11.6681ZM62.9273 17.1141C62.9357 16.7565 62.8714 16.4008 62.7381 16.0687C62.6049 15.7366 62.4056 15.435 62.1522 15.1821C61.8988 14.9292 61.5966 14.7303 61.264 14.5974C60.9314 14.4646 60.5753 14.4006 60.2172 14.4092C59.4459 14.3613 58.6867 14.618 58.1032 15.124C57.5197 15.63 57.1586 16.3447 57.0979 17.1141H62.9273ZM66.6664 23.4057C65.9329 24.2941 65.0107 25.0084 63.9667 25.497C62.9227 25.9855 61.783 26.236 60.6301 26.2304C56.216 26.2304 52.6819 23.2876 52.6819 18.7307C52.6819 14.1737 56.2155 11.2323 60.6301 11.2323C64.7559 11.2323 67.3432 14.1714 67.3432 18.7307V20.1129H57.0979C57.2254 20.8969 57.6323 21.6084 58.2437 22.1163C58.855 22.6243 59.6295 22.8945 60.4245 22.8771C61.0528 22.8732 61.6702 22.7124 62.2204 22.4094C62.7705 22.1064 63.2361 21.6707 63.5747 21.1421L66.6664 23.4057ZM76.544 15.0986C74.3369 15.0986 73.0126 16.5704 73.0126 18.715C73.0126 20.8597 74.3364 22.3329 76.544 22.3329C78.7515 22.3329 80.0785 20.8633 80.0785 18.715C80.0785 16.5667 78.7538 15.0986 76.544 15.0986ZM84.1423 25.8617H80.0785V23.9788H80.0183C79.5085 24.6637 78.8472 25.2217 78.086 25.6095C77.3248 25.9972 76.4843 26.2042 75.6299 26.2143C71.3886 26.2143 68.5948 23.1572 68.5948 18.834C68.5948 14.8634 71.0672 11.2176 75.1314 11.2176C76.9582 11.2176 78.6646 11.7167 79.6656 13.1004H79.7235V4.91639H84.1418L84.1423 25.8617ZM113.942 25.8699H109.528V18.9658C109.528 17.3194 109.498 15.2 107.232 15.2C104.933 15.2 104.581 16.9938 104.581 18.8459V25.8695H100.167V11.6717H104.405V13.612H104.464C104.888 12.8878 105.501 12.2921 106.237 11.8882C106.973 11.4843 107.805 11.2875 108.645 11.3186C113.119 11.3186 113.944 14.2577 113.944 18.0813L113.942 25.8699ZM95.1864 9.73101C94.6797 9.7311 94.1844 9.58114 93.7631 9.30009C93.3418 9.01905 93.0135 8.61954 92.8195 8.15209C92.6255 7.68463 92.5747 7.17024 92.6734 6.67394C92.7722 6.17764 93.0161 5.72173 93.3743 5.36387C93.7325 5.00601 94.1888 4.76226 94.6857 4.66346C95.1826 4.56465 95.6976 4.61522 96.1657 4.80878C96.6339 5.00233 97.034 5.33018 97.3155 5.75085C97.5971 6.17153 97.7474 6.66614 97.7475 7.17215C97.7475 7.50812 97.6813 7.84082 97.5527 8.15124C97.424 8.46166 97.2354 8.74373 96.9975 8.98134C96.7597 9.21895 96.4773 9.40745 96.1666 9.53608C95.8558 9.66471 95.5228 9.73095 95.1864 9.73101ZM97.3934 25.8699H92.9747V11.6717H97.3934V25.8699ZM116.142 0.520124H90.7566C90.1804 0.51363 89.6252 0.735871 89.213 1.13801C88.8008 1.54015 88.5653 2.08929 88.5583 2.66475V28.1243C88.5651 28.7 88.8004 29.2496 89.2126 29.6521C89.6248 30.0547 90.1801 30.2773 90.7566 30.2712H116.142C116.72 30.2785 117.277 30.0564 117.691 29.6539C118.105 29.2513 118.342 28.7012 118.35 28.1243V2.66292C118.341 2.08631 118.104 1.53655 117.69 1.13442C117.277 0.732287 116.72 0.510682 116.142 0.518286M121.74 26.4242C121.203 26.4294 120.69 26.6467 120.312 27.0287C119.935 27.4108 119.725 27.9264 119.728 28.4628C119.73 28.9992 119.946 29.5127 120.326 29.8911C120.707 30.2695 121.222 30.4819 121.759 30.4819C122.296 30.4819 122.812 30.2695 123.192 29.8911C123.573 29.5127 123.788 28.9992 123.791 28.4628C123.793 27.9264 123.583 27.4108 123.206 27.0287C122.829 26.6467 122.316 26.4294 121.779 26.4242H121.74ZM121.74 30.2496C121.387 30.2555 121.041 30.1569 120.745 29.9663C120.449 29.7757 120.216 29.5017 120.076 29.1789C119.936 28.8561 119.894 28.499 119.957 28.1528C120.02 27.8066 120.185 27.4868 120.43 27.2339C120.675 26.981 120.989 26.8063 121.334 26.7319C121.678 26.6575 122.037 26.6868 122.364 26.816C122.692 26.9453 122.974 27.1686 123.174 27.4579C123.375 27.7472 123.485 28.0894 123.491 28.4412C123.491 28.4513 123.491 28.4609 123.491 28.471C123.501 28.9325 123.327 29.3791 123.007 29.7125C122.687 30.0458 122.248 30.2387 121.786 30.2487H121.74" fill="#2563EB"/>
<path d="M122.062 28.5817C122.138 28.5825 122.213 28.5677 122.282 28.5383C122.352 28.5089 122.415 28.4656 122.467 28.4109C122.519 28.3563 122.559 28.2915 122.585 28.2206C122.612 28.1498 122.623 28.0743 122.618 27.9989C122.618 27.5856 122.369 27.3881 121.856 27.3881H121.029V29.5521H121.34V28.6088H121.723L121.731 28.6203L122.325 29.5521H122.658L122.019 28.5877L122.062 28.5817ZM121.702 28.3649H121.341V27.6334H121.799C122.035 27.6334 122.304 27.672 122.304 27.981C122.304 28.3365 122.032 28.3649 121.7 28.3649M0.790894 4.921H5.38574V21.6372H13.8922V25.8722H0.790894V4.921ZM15.9236 11.6667H20.3377V25.8644H15.9236V11.6667ZM18.1306 4.60823C18.6371 4.60832 19.1321 4.75839 19.5531 5.03947C19.9742 5.32054 20.3023 5.72 20.496 6.18733C20.6898 6.65465 20.7404 7.16886 20.6416 7.66494C20.5427 8.16101 20.2988 8.61666 19.9407 8.97429C19.5826 9.33191 19.1263 9.57544 18.6296 9.67409C18.1329 9.77273 17.618 9.72206 17.1501 9.52847C16.6823 9.33489 16.2824 9.00709 16.001 8.58652C15.7197 8.16596 15.5695 7.67151 15.5695 7.16571C15.5695 6.82982 15.6358 6.49722 15.7645 6.1869C15.8932 5.87658 16.0819 5.59463 16.3197 5.35714C16.5575 5.11965 16.8399 4.93128 17.1506 4.80278C17.4613 4.67428 17.7943 4.60817 18.1306 4.60823ZM38.8026 4.91777H43.2167V17.4388L48.2194 11.6603H53.6314L47.8378 18.2333L53.5095 25.8704H47.9615L43.2756 18.8523H43.2177V25.8695H38.8035L38.8026 4.91777ZM22.7853 11.6681H27.0242V13.6083H27.0844C27.5078 12.8838 28.1203 12.2878 28.8565 11.8839C29.5926 11.48 30.4248 11.2833 31.2641 11.3149C35.7403 11.3149 36.5643 14.2563 36.5643 18.0776V25.8635H32.1501V18.9607C32.1501 17.313 32.1198 15.195 29.8511 15.195C27.5567 15.195 27.2026 16.9892 27.2026 18.8409V25.8617H22.7885L22.7853 11.6681ZM62.9273 17.1141C62.9357 16.7565 62.8714 16.4008 62.7381 16.0687C62.6049 15.7366 62.4056 15.435 62.1522 15.1821C61.8988 14.9292 61.5966 14.7303 61.264 14.5974C60.9314 14.4646 60.5753 14.4006 60.2172 14.4092C59.4459 14.3613 58.6867 14.618 58.1032 15.124C57.5197 15.63 57.1586 16.3447 57.0979 17.1141H62.9273ZM66.6664 23.4057C65.9329 24.2941 65.0107 25.0084 63.9667 25.497C62.9227 25.9855 61.783 26.236 60.6301 26.2304C56.216 26.2304 52.6819 23.2876 52.6819 18.7307C52.6819 14.1737 56.2155 11.2323 60.6301 11.2323C64.7559 11.2323 67.3432 14.1714 67.3432 18.7307V20.1129H57.0979C57.2254 20.8969 57.6323 21.6084 58.2437 22.1163C58.855 22.6243 59.6295 22.8945 60.4245 22.8771C61.0528 22.8732 61.6702 22.7124 62.2204 22.4094C62.7705 22.1064 63.2361 21.6707 63.5747 21.1421L66.6664 23.4057ZM76.544 15.0986C74.3369 15.0986 73.0126 16.5704 73.0126 18.715C73.0126 20.8597 74.3364 22.3329 76.544 22.3329C78.7515 22.3329 80.0785 20.8633 80.0785 18.715C80.0785 16.5667 78.7538 15.0986 76.544 15.0986ZM84.1423 25.8617H80.0785V23.9788H80.0183C79.5085 24.6637 78.8472 25.2217 78.086 25.6095C77.3248 25.9972 76.4843 26.2042 75.6299 26.2143C71.3886 26.2143 68.5948 23.1572 68.5948 18.834C68.5948 14.8634 71.0672 11.2176 75.1314 11.2176C76.9582 11.2176 78.6646 11.7167 79.6656 13.1004H79.7235V4.91639H84.1418L84.1423 25.8617ZM113.942 25.8699H109.528V18.9658C109.528 17.3194 109.498 15.2 107.232 15.2C104.933 15.2 104.581 16.9938 104.581 18.8459V25.8695H100.167V11.6717H104.405V13.612H104.464C104.888 12.8878 105.501 12.2921 106.237 11.8882C106.973 11.4843 107.805 11.2875 108.645 11.3186C113.119 11.3186 113.944 14.2577 113.944 18.0813L113.942 25.8699ZM95.1864 9.73101C94.6797 9.7311 94.1844 9.58114 93.7631 9.30009C93.3418 9.01905 93.0135 8.61954 92.8195 8.15209C92.6255 7.68463 92.5747 7.17024 92.6734 6.67394C92.7722 6.17764 93.0161 5.72173 93.3743 5.36387C93.7325 5.00601 94.1888 4.76226 94.6857 4.66346C95.1826 4.56465 95.6976 4.61522 96.1657 4.80878C96.6339 5.00233 97.034 5.33018 97.3155 5.75085C97.5971 6.17153 97.7474 6.66614 97.7475 7.17215C97.7475 7.50812 97.6813 7.84082 97.5527 8.15124C97.424 8.46166 97.2354 8.74373 96.9975 8.98134C96.7597 9.21895 96.4773 9.40745 96.1666 9.53608C95.8558 9.66471 95.5228 9.73095 95.1864 9.73101ZM97.3934 25.8699H92.9747V11.6717H97.3934V25.8699ZM116.142 0.520124H90.7566C90.1804 0.51363 89.6252 0.735871 89.213 1.13801C88.8008 1.54015 88.5653 2.08929 88.5583 2.66475V28.1243C88.5651 28.7 88.8004 29.2496 89.2126 29.6521C89.6248 30.0547 90.1801 30.2773 90.7566 30.2712H116.142C116.72 30.2785 117.277 30.0564 117.691 29.6539C118.105 29.2513 118.342 28.7012 118.35 28.1243V2.66292C118.341 2.08631 118.104 1.53655 117.69 1.13442C117.277 0.732287 116.72 0.510682 116.142 0.518286M121.74 26.4242C121.203 26.4294 120.69 26.6467 120.312 27.0287C119.935 27.4108 119.725 27.9264 119.728 28.4628C119.73 28.9992 119.946 29.5127 120.326 29.8911C120.707 30.2695 121.222 30.4819 121.759 30.4819C122.296 30.4819 122.812 30.2695 123.192 29.8911C123.573 29.5127 123.788 28.9992 123.791 28.4628C123.793 27.9264 123.583 27.4108 123.206 27.0287C122.829 26.6467 122.316 26.4294 121.779 26.4242H121.74ZM121.74 30.2496C121.387 30.2555 121.041 30.1569 120.745 29.9663C120.449 29.7757 120.216 29.5017 120.076 29.1789C119.936 28.8561 119.894 28.499 119.957 28.1528C120.02 27.8066 120.185 27.4868 120.43 27.2339C120.675 26.981 120.989 26.8063 121.334 26.7319C121.678 26.6575 122.037 26.6868 122.364 26.816C122.692 26.9453 122.974 27.1686 123.174 27.4579C123.375 27.7472 123.485 28.0894 123.491 28.4412C123.491 28.4513 123.491 28.4609 123.491 28.471C123.501 28.9325 123.327 29.3791 123.007 29.7125C122.687 30.0458 122.248 30.2387 121.786 30.2487H121.74" fill="#2563EB"/>
<path d="M122.062 28.5817C122.138 28.5825 122.213 28.5677 122.282 28.5383C122.352 28.5089 122.415 28.4656 122.467 28.4109C122.519 28.3563 122.559 28.2915 122.585 28.2206C122.612 28.1498 122.623 28.0743 122.618 27.9989C122.618 27.5856 122.369 27.3881 121.856 27.3881H121.029V29.5521H121.34V28.6088H121.723L121.731 28.6203L122.325 29.5521H122.658L122.019 28.5877L122.062 28.5817ZM121.702 28.3649H121.341V27.6334H121.799C122.035 27.6334 122.304 27.672 122.304 27.981C122.304 28.3365 122.032 28.3649 121.7 28.3649M0.790894 4.921H5.38574V21.6372H13.8922V25.8722H0.790894V4.921ZM15.9236 11.6667H20.3377V25.8644H15.9236V11.6667ZM18.1306 4.60823C18.6371 4.60832 19.1321 4.75839 19.5531 5.03947C19.9742 5.32054 20.3023 5.72 20.496 6.18733C20.6898 6.65465 20.7404 7.16886 20.6416 7.66494C20.5427 8.16101 20.2988 8.61666 19.9407 8.97429C19.5826 9.33191 19.1263 9.57544 18.6296 9.67409C18.1329 9.77273 17.618 9.72206 17.1501 9.52847C16.6823 9.33489 16.2824 9.00709 16.001 8.58652C15.7197 8.16596 15.5695 7.67151 15.5695 7.16571C15.5695 6.82982 15.6358 6.49722 15.7645 6.1869C15.8932 5.87658 16.0819 5.59463 16.3197 5.35714C16.5575 5.11965 16.8399 4.93128 17.1506 4.80278C17.4613 4.67428 17.7943 4.60817 18.1306 4.60823ZM38.8026 4.91777H43.2167V17.4388L48.2194 11.6603H53.6314L47.8378 18.2333L53.5095 25.8704H47.9615L43.2756 18.8523H43.2177V25.8695H38.8035L38.8026 4.91777ZM22.7853 11.6681H27.0242V13.6083H27.0844C27.5078 12.8838 28.1203 12.2878 28.8565 11.8839C29.5926 11.48 30.4248 11.2833 31.2641 11.3149C35.7403 11.3149 36.5643 14.2563 36.5643 18.0776V25.8635H32.1501V18.9607C32.1501 17.313 32.1198 15.195 29.8511 15.195C27.5567 15.195 27.2026 16.9892 27.2026 18.8409V25.8617H22.7885L22.7853 11.6681ZM62.9273 17.1141C62.9357 16.7565 62.8714 16.4008 62.7381 16.0687C62.6049 15.7366 62.4056 15.435 62.1522 15.1821C61.8988 14.9292 61.5966 14.7303 61.264 14.5974C60.9314 14.4646 60.5753 14.4006 60.2172 14.4092C59.4459 14.3613 58.6867 14.618 58.1032 15.124C57.5197 15.63 57.1586 16.3447 57.0979 17.1141H62.9273ZM66.6664 23.4057C65.9329 24.2941 65.0107 25.0084 63.9667 25.497C62.9227 25.9855 61.783 26.236 60.6301 26.2304C56.216 26.2304 52.6819 23.2876 52.6819 18.7307C52.6819 14.1737 56.2155 11.2323 60.6301 11.2323C64.7559 11.2323 67.3432 14.1714 67.3432 18.7307V20.1129H57.0979C57.2254 20.8969 57.6323 21.6084 58.2437 22.1163C58.855 22.6243 59.6295 22.8945 60.4245 22.8771C61.0528 22.8732 61.6702 22.7124 62.2204 22.4094C62.7705 22.1064 63.2361 21.6707 63.5747 21.1421L66.6664 23.4057ZM76.544 15.0986C74.3369 15.0986 73.0126 16.5704 73.0126 18.715C73.0126 20.8597 74.3364 22.3329 76.544 22.3329C78.7515 22.3329 80.0785 20.8633 80.0785 18.715C80.0785 16.5667 78.7538 15.0986 76.544 15.0986ZM84.1423 25.8617H80.0785V23.9788H80.0183C79.5085 24.6637 78.8472 25.2217 78.086 25.6095C77.3248 25.9972 76.4843 26.2042 75.6299 26.2143C71.3886 26.2143 68.5948 23.1572 68.5948 18.834C68.5948 14.8634 71.0672 11.2176 75.1314 11.2176C76.9582 11.2176 78.6646 11.7167 79.6656 13.1004H79.7235V4.91639H84.1418L84.1423 25.8617ZM113.942 25.8699H109.528V18.9658C109.528 17.3194 109.498 15.2 107.232 15.2C104.933 15.2 104.581 16.9938 104.581 18.8459V25.8695H100.167V11.6717H104.405V13.612H104.464C104.888 12.8878 105.501 12.2921 106.237 11.8882C106.973 11.4843 107.805 11.2875 108.645 11.3186C113.119 11.3186 113.944 14.2577 113.944 18.0813L113.942 25.8699ZM95.1864 9.73101C94.6797 9.7311 94.1844 9.58114 93.7631 9.30009C93.3418 9.01905 93.0135 8.61954 92.8195 8.15209C92.6255 7.68463 92.5747 7.17024 92.6734 6.67394C92.7722 6.17764 93.0161 5.72173 93.3743 5.36387C93.7325 5.00601 94.1888 4.76226 94.6857 4.66346C95.1826 4.56465 95.6976 4.61522 96.1657 4.80878C96.6339 5.00233 97.034 5.33018 97.3155 5.75085C97.5971 6.17153 97.7474 6.66614 97.7475 7.17215C97.7475 7.50812 97.6813 7.84082 97.5527 8.15124C97.424 8.46166 97.2354 8.74373 96.9975 8.98134C96.7597 9.21895 96.4773 9.40745 96.1666 9.53608C95.8558 9.66471 95.5228 9.73095 95.1864 9.73101ZM97.3934 25.8699H92.9747V11.6717H97.3934V25.8699ZM116.142 0.520124H90.7566C90.1804 0.51363 89.6252 0.735871 89.213 1.13801C88.8008 1.54015 88.5653 2.08929 88.5583 2.66475V28.1243C88.5651 28.7 88.8004 29.2496 89.2126 29.6521C89.6248 30.0547 90.1801 30.2773 90.7566 30.2712H116.142C116.72 30.2785 117.277 30.0564 117.691 29.6539C118.105 29.2513 118.342 28.7012 118.35 28.1243V2.66292C118.341 2.08631 118.104 1.53655 117.69 1.13442C117.277 0.732287 116.72 0.510682 116.142 0.518286M121.74 26.4242C121.203 26.4294 120.69 26.6467 120.312 27.0287C119.935 27.4108 119.725 27.9264 119.728 28.4628C119.73 28.9992 119.946 29.5127 120.326 29.8911C120.707 30.2695 121.222 30.4819 121.759 30.4819C122.296 30.4819 122.812 30.2695 123.192 29.8911C123.573 29.5127 123.788 28.9992 123.791 28.4628C123.793 27.9264 123.583 27.4108 123.206 27.0287C122.829 26.6467 122.316 26.4294 121.779 26.4242H121.74ZM121.74 30.2496C121.387 30.2555 121.041 30.1569 120.745 29.9663C120.449 29.7757 120.216 29.5017 120.076 29.1789C119.936 28.8561 119.894 28.499 119.957 28.1528C120.02 27.8066 120.185 27.4868 120.43 27.2339C120.675 26.981 120.989 26.8063 121.334 26.7319C121.678 26.6575 122.037 26.6868 122.364 26.816C122.692 26.9453 122.974 27.1686 123.174 27.4579C123.375 27.7472 123.485 28.0894 123.491 28.4412C123.491 28.4513 123.491 28.4609 123.491 28.471C123.501 28.9325 123.327 29.3791 123.007 29.7125C122.687 30.0458 122.248 30.2387 121.786 30.2487H121.74" fill="#2563EB"/>
<path d="M122.062 28.5817C122.138 28.5825 122.213 28.5677 122.282 28.5383C122.352 28.5089 122.415 28.4656 122.467 28.4109C122.519 28.3563 122.559 28.2915 122.585 28.2206C122.612 28.1498 122.623 28.0743 122.618 27.9989C122.618 27.5856 122.369 27.3881 121.856 27.3881H121.029V29.5521H121.34V28.6088H121.723L121.731 28.6203L122.325 29.5521H122.658L122.019 28.5877L122.062 28.5817ZM121.702 28.3649H121.341V27.6334H121.799C122.035 27.6334 122.304 27.672 122.304 27.981C122.304 28.3365 122.032 28.3649 121.7 28.3649M0.790894 4.921H5.38574V21.6372H13.8922V25.8722H0.790894V4.921ZM15.9236 11.6667H20.3377V25.8644H15.9236V11.6667ZM18.1306 4.60823C18.6371 4.60832 19.1321 4.75839 19.5531 5.03947C19.9742 5.32054 20.3023 5.72 20.496 6.18733C20.6898 6.65465 20.7404 7.16886 20.6416 7.66494C20.5427 8.16101 20.2988 8.61666 19.9407 8.97429C19.5826 9.33191 19.1263 9.57544 18.6296 9.67409C18.1329 9.77273 17.618 9.72206 17.1501 9.52847C16.6823 9.33489 16.2824 9.00709 16.001 8.58652C15.7197 8.16596 15.5695 7.67151 15.5695 7.16571C15.5695 6.82982 15.6358 6.49722 15.7645 6.1869C15.8932 5.87658 16.0819 5.59463 16.3197 5.35714C16.5575 5.11965 16.8399 4.93128 17.1506 4.80278C17.4613 4.67428 17.7943 4.60817 18.1306 4.60823ZM38.8026 4.91777H43.2167V17.4388L48.2194 11.6603H53.6314L47.8378 18.2333L53.5095 25.8704H47.9615L43.2756 18.8523H43.2177V25.8695H38.8035L38.8026 4.91777ZM22.7853 11.6681H27.0242V13.6083H27.0844C27.5078 12.8838 28.1203 12.2878 28.8565 11.8839C29.5926 11.48 30.4248 11.2833 31.2641 11.3149C35.7403 11.3149 36.5643 14.2563 36.5643 18.0776V25.8635H32.1501V18.9607C32.1501 17.313 32.1198 15.195 29.8511 15.195C27.5567 15.195 27.2026 16.9892 27.2026 18.8409V25.8617H22.7885L22.7853 11.6681ZM62.9273 17.1141C62.9357 16.7565 62.8714 16.4008 62.7381 16.0687C62.6049 15.7366 62.4056 15.435 62.1522 15.1821C61.8988 14.9292 61.5966 14.7303 61.264 14.5974C60.9314 14.4646 60.5753 14.4006 60.2172 14.4092C59.4459 14.3613 58.6867 14.618 58.1032 15.124C57.5197 15.63 57.1586 16.3447 57.0979 17.1141H62.9273ZM66.6664 23.4057C65.9329 24.2941 65.0107 25.0084 63.9667 25.497C62.9227 25.9855 61.783 26.236 60.6301 26.2304C56.216 26.2304 52.6819 23.2876 52.6819 18.7307C52.6819 14.1737 56.2155 11.2323 60.6301 11.2323C64.7559 11.2323 67.3432 14.1714 67.3432 18.7307V20.1129H57.0979C57.2254 20.8969 57.6323 21.6084 58.2437 22.1163C58.855 22.6243 59.6295 22.8945 60.4245 22.8771C61.0528 22.8732 61.6702 22.7124 62.2204 22.4094C62.7705 22.1064 63.2361 21.6707 63.5747 21.1421L66.6664 23.4057ZM76.544 15.0986C74.3369 15.0986 73.0126 16.5704 73.0126 18.715C73.0126 20.8597 74.3364 22.3329 76.544 22.3329C78.7515 22.3329 80.0785 20.8633 80.0785 18.715C80.0785 16.5667 78.7538 15.0986 76.544 15.0986ZM84.1423 25.8617H80.0785V23.9788H80.0183C79.5085 24.6637 78.8472 25.2217 78.086 25.6095C77.3248 25.9972 76.4843 26.2042 75.6299 26.2143C71.3886 26.2143 68.5948 23.1572 68.5948 18.834C68.5948 14.8634 71.0672 11.2176 75.1314 11.2176C76.9582 11.2176 78.6646 11.7167 79.6656 13.1004H79.7235V4.91639H84.1418L84.1423 25.8617ZM113.942 25.8699H109.528V18.9658C109.528 17.3194 109.498 15.2 107.232 15.2C104.933 15.2 104.581 16.9938 104.581 18.8459V25.8695H100.167V11.6717H104.405V13.612H104.464C104.888 12.8878 105.501 12.2921 106.237 11.8882C106.973 11.4843 107.805 11.2875 108.645 11.3186C113.119 11.3186 113.944 14.2577 113.944 18.0813L113.942 25.8699ZM95.1864 9.73101C94.6797 9.7311 94.1844 9.58114 93.7631 9.30009C93.3418 9.01905 93.0135 8.61954 92.8195 8.15209C92.6255 7.68463 92.5747 7.17024 92.6734 6.67394C92.7722 6.17764 93.0161 5.72173 93.3743 5.36387C93.7325 5.00601 94.1888 4.76226 94.6857 4.66346C95.1826 4.56465 95.6976 4.61522 96.1657 4.80878C96.6339 5.00233 97.034 5.33018 97.3155 5.75085C97.5971 6.17153 97.7474 6.66614 97.7475 7.17215C97.7475 7.50812 97.6813 7.84082 97.5527 8.15124C97.424 8.46166 97.2354 8.74373 96.9975 8.98134C96.7597 9.21895 96.4773 9.40745 96.1666 9.53608C95.8558 9.66471 95.5228 9.73095 95.1864 9.73101ZM97.3934 25.8699H92.9747V11.6717H97.3934V25.8699ZM116.142 0.520124H90.7566C90.1804 0.51363 89.6252 0.735871 89.213 1.13801C88.8008 1.54015 88.5653 2.08929 88.5583 2.66475V28.1243C88.5651 28.7 88.8004 29.2496 89.2126 29.6521C89.6248 30.0547 90.1801 30.2773 90.7566 30.2712H116.142C116.72 30.2785 117.277 30.0564 117.691 29.6539C118.105 29.2513 118.342 28.7012 118.35 28.1243V2.66292C118.341 2.08631 118.104 1.53655 117.69 1.13442C117.277 0.732287 116.72 0.510682 116.142 0.518286M121.74 26.4242C121.203 26.4294 120.69 26.6467 120.312 27.0287C119.935 27.4108 119.725 27.9264 119.728 28.4628C119.73 28.9992 119.946 29.5127 120.326 29.8911C120.707 30.2695 121.222 30.4819 121.759 30.4819C122.296 30.4819 122.812 30.2695 123.192 29.8911C123.573 29.5127 123.788 28.9992 123.791 28.4628C123.793 27.9264 123.583 27.4108 123.206 27.0287C122.829 26.6467 122.316 26.4294 121.779 26.4242H121.74ZM121.74 30.2496C121.387 30.2555 121.041 30.1569 120.745 29.9663C120.449 29.7757 120.216 29.5017 120.076 29.1789C119.936 28.8561 119.894 28.499 119.957 28.1528C120.02 27.8066 120.185 27.4868 120.43 27.2339C120.675 26.981 120.989 26.8063 121.334 26.7319C121.678 26.6575 122.037 26.6868 122.364 26.816C122.692 26.9453 122.974 27.1686 123.174 27.4579C123.375 27.7472 123.485 28.0894 123.491 28.4412C123.491 28.4513 123.491 28.4609 123.491 28.471C123.501 28.9325 123.327 29.3791 123.007 29.7125C122.687 30.0458 122.248 30.2387 121.786 30.2487H121.74" fill="#2563EB"/>
<path d="M122.062 28.5817C122.138 28.5825 122.213 28.5677 122.282 28.5383C122.352 28.5089 122.415 28.4656 122.467 28.4109C122.519 28.3563 122.559 28.2915 122.585 28.2206C122.612 28.1498 122.623 28.0743 122.618 27.9989C122.618 27.5856 122.369 27.3881 121.856 27.3881H121.029V29.5521H121.34V28.6088H121.723L121.731 28.6203L122.325 29.5521H122.658L122.019 28.5877L122.062 28.5817ZM121.702 28.3649H121.341V27.6334H121.799C122.035 27.6334 122.304 27.672 122.304 27.981C122.304 28.3365 122.032 28.3649 121.7 28.3649M0.790894 4.921H5.38574V21.6372H13.8922V25.8722H0.790894V4.921ZM15.9236 11.6667H20.3377V25.8644H15.9236V11.6667ZM18.1306 4.60823C18.6371 4.60832 19.1321 4.75839 19.5531 5.03947C19.9742 5.32054 20.3023 5.72 20.496 6.18733C20.6898 6.65465 20.7404 7.16886 20.6416 7.66494C20.5427 8.16101 20.2988 8.61666 19.9407 8.97429C19.5826 9.33191 19.1263 9.57544 18.6296 9.67409C18.1329 9.77273 17.618 9.72206 17.1501 9.52847C16.6823 9.33489 16.2824 9.00709 16.001 8.58652C15.7197 8.16596 15.5695 7.67151 15.5695 7.16571C15.5695 6.82982 15.6358 6.49722 15.7645 6.1869C15.8932 5.87658 16.0819 5.59463 16.3197 5.35714C16.5575 5.11965 16.8399 4.93128 17.1506 4.80278C17.4613 4.67428 17.7943 4.60817 18.1306 4.60823ZM38.8026 4.91777H43.2167V17.4388L48.2194 11.6603H53.6314L47.8378 18.2333L53.5095 25.8704H47.9615L43.2756 18.8523H43.2177V25.8695H38.8035L38.8026 4.91777ZM22.7853 11.6681H27.0242V13.6083H27.0844C27.5078 12.8838 28.1203 12.2878 28.8565 11.8839C29.5926 11.48 30.4248 11.2833 31.2641 11.3149C35.7403 11.3149 36.5643 14.2563 36.5643 18.0776V25.8635H32.1501V18.9607C32.1501 17.313 32.1198 15.195 29.8511 15.195C27.5567 15.195 27.2026 16.9892 27.2026 18.8409V25.8617H22.7885L22.7853 11.6681ZM62.9273 17.1141C62.9357 16.7565 62.8714 16.4008 62.7381 16.0687C62.6049 15.7366 62.4056 15.435 62.1522 15.1821C61.8988 14.9292 61.5966 14.7303 61.264 14.5974C60.9314 14.4646 60.5753 14.4006 60.2172 14.4092C59.4459 14.3613 58.6867 14.618 58.1032 15.124C57.5197 15.63 57.1586 16.3447 57.0979 17.1141H62.9273ZM66.6664 23.4057C65.9329 24.2941 65.0107 25.0084 63.9667 25.497C62.9227 25.9855 61.783 26.236 60.6301 26.2304C56.216 26.2304 52.6819 23.2876 52.6819 18.7307C52.6819 14.1737 56.2155 11.2323 60.6301 11.2323C64.7559 11.2323 67.3432 14.1714 67.3432 18.7307V20.1129H57.0979C57.2254 20.8969 57.6323 21.6084 58.2437 22.1163C58.855 22.6243 59.6295 22.8945 60.4245 22.8771C61.0528 22.8732 61.6702 22.7124 62.2204 22.4094C62.7705 22.1064 63.2361 21.6707 63.5747 21.1421L66.6664 23.4057ZM76.544 15.0986C74.3369 15.0986 73.0126 16.5704 73.0126 18.715C73.0126 20.8597 74.3364 22.3329 76.544 22.3329C78.7515 22.3329 80.0785 20.8633 80.0785 18.715C80.0785 16.5667 78.7538 15.0986 76.544 15.0986ZM84.1423 25.8617H80.0785V23.9788H80.0183C79.5085 24.6637 78.8472 25.2217 78.086 25.6095C77.3248 25.9972 76.4843 26.2042 75.6299 26.2143C71.3886 26.2143 68.5948 23.1572 68.5948 18.834C68.5948 14.8634 71.0672 11.2176 75.1314 11.2176C76.9582 11.2176 78.6646 11.7167 79.6656 13.1004H79.7235V4.91639H84.1418L84.1423 25.8617ZM113.942 25.8699H109.528V18.9658C109.528 17.3194 109.498 15.2 107.232 15.2C104.933 15.2 104.581 16.9938 104.581 18.8459V25.8695H100.167V11.6717H104.405V13.612H104.464C104.888 12.8878 105.501 12.2921 106.237 11.8882C106.973 11.4843 107.805 11.2875 108.645 11.3186C113.119 11.3186 113.944 14.2577 113.944 18.0813L113.942 25.8699ZM95.1864 9.73101C94.6797 9.7311 94.1844 9.58114 93.7631 9.30009C93.3418 9.01905 93.0135 8.61954 92.8195 8.15209C92.6255 7.68463 92.5747 7.17024 92.6734 6.67394C92.7722 6.17764 93.0161 5.72173 93.3743 5.36387C93.7325 5.00601 94.1888 4.76226 94.6857 4.66346C95.1826 4.56465 95.6976 4.61522 96.1657 4.80878C96.6339 5.00233 97.034 5.33018 97.3155 5.75085C97.5971 6.17153 97.7474 6.66614 97.7475 7.17215C97.7475 7.50812 97.6813 7.84082 97.5527 8.15124C97.424 8.46166 97.2354 8.74373 96.9975 8.98134C96.7597 9.21895 96.4773 9.40745 96.1666 9.53608C95.8558 9.66471 95.5228 9.73095 95.1864 9.73101ZM97.3934 25.8699H92.9747V11.6717H97.3934V25.8699ZM116.142 0.520124H90.7566C90.1804 0.51363 89.6252 0.735871 89.213 1.13801C88.8008 1.54015 88.5653 2.08929 88.5583 2.66475V28.1243C88.5651 28.7 88.8004 29.2496 89.2126 29.6521C89.6248 30.0547 90.1801 30.2773 90.7566 30.2712H116.142C116.72 30.2785 117.277 30.0564 117.691 29.6539C118.105 29.2513 118.342 28.7012 118.35 28.1243V2.66292C118.341 2.08631 118.104 1.53655 117.69 1.13442C117.277 0.732287 116.72 0.510682 116.142 0.518286M121.74 26.4242C121.203 26.4294 120.69 26.6467 120.312 27.0287C119.935 27.4108 119.725 27.9264 119.728 28.4628C119.73 28.9992 119.946 29.5127 120.326 29.8911C120.707 30.2695 121.222 30.4819 121.759 30.4819C122.296 30.4819 122.812 30.2695 123.192 29.8911C123.573 29.5127 123.788 28.9992 123.791 28.4628C123.793 27.9264 123.583 27.4108 123.206 27.0287C122.829 26.6467 122.316 26.4294 121.779 26.4242H121.74ZM121.74 30.2496C121.387 30.2555 121.041 30.1569 120.745 29.9663C120.449 29.7757 120.216 29.5017 120.076 29.1789C119.936 28.8561 119.894 28.499 119.957 28.1528C120.02 27.8066 120.185 27.4868 120.43 27.2339C120.675 26.981 120.989 26.8063 121.334 26.7319C121.678 26.6575 122.037 26.6868 122.364 26.816C122.692 26.9453 122.974 27.1686 123.174 27.4579C123.375 27.7472 123.485 28.0894 123.491 28.4412C123.491 28.4513 123.491 28.4609 123.491 28.471C123.501 28.9325 123.327 29.3791 123.007 29.7125C122.687 30.0458 122.248 30.2387 121.786 30.2487H121.74" fill="#2563EB"/>
<path d="M122.062 28.5817C122.138 28.5825 122.213 28.5677 122.282 28.5383C122.352 28.5089 122.415 28.4656 122.467 28.4109C122.519 28.3563 122.559 28.2915 122.585 28.2206C122.612 28.1498 122.623 28.0743 122.618 27.9989C122.618 27.5856 122.369 27.3881 121.856 27.3881H121.029V29.5521H121.34V28.6088H121.723L121.731 28.6203L122.325 29.5521H122.658L122.019 28.5877L122.062 28.5817ZM121.702 28.3649H121.341V27.6334H121.799C122.035 27.6334 122.304 27.672 122.304 27.981C122.304 28.3365 122.032 28.3649 121.7 28.3649M0.790894 4.921H5.38574V21.6372H13.8922V25.8722H0.790894V4.921ZM15.9236 11.6667H20.3377V25.8644H15.9236V11.6667ZM18.1306 4.60823C18.6371 4.60832 19.1321 4.75839 19.5531 5.03947C19.9742 5.32054 20.3023 5.72 20.496 6.18733C20.6898 6.65465 20.7404 7.16886 20.6416 7.66494C20.5427 8.16101 20.2988 8.61666 19.9407 8.97429C19.5826 9.33191 19.1263 9.57544 18.6296 9.67409C18.1329 9.77273 17.618 9.72206 17.1501 9.52847C16.6823 9.33489 16.2824 9.00709 16.001 8.58652C15.7197 8.16596 15.5695 7.67151 15.5695 7.16571C15.5695 6.82982 15.6358 6.49722 15.7645 6.1869C15.8932 5.87658 16.0819 5.59463 16.3197 5.35714C16.5575 5.11965 16.8399 4.93128 17.1506 4.80278C17.4613 4.67428 17.7943 4.60817 18.1306 4.60823ZM38.8026 4.91777H43.2167V17.4388L48.2194 11.6603H53.6314L47.8378 18.2333L53.5095 25.8704H47.9615L43.2756 18.8523H43.2177V25.8695H38.8035L38.8026 4.91777ZM22.7853 11.6681H27.0242V13.6083H27.0844C27.5078 12.8838 28.1203 12.2878 28.8565 11.8839C29.5926 11.48 30.4248 11.2833 31.2641 11.3149C35.7403 11.3149 36.5643 14.2563 36.5643 18.0776V25.8635H32.1501V18.9607C32.1501 17.313 32.1198 15.195 29.8511 15.195C27.5567 15.195 27.2026 16.9892 27.2026 18.8409V25.8617H22.7885L22.7853 11.6681ZM62.9273 17.1141C62.9357 16.7565 62.8714 16.4008 62.7381 16.0687C62.6049 15.7366 62.4056 15.435 62.1522 15.1821C61.8988 14.9292 61.5966 14.7303 61.264 14.5974C60.9314 14.4646 60.5753 14.4006 60.2172 14.4092C59.4459 14.3613 58.6867 14.618 58.1032 15.124C57.5197 15.63 57.1586 16.3447 57.0979 17.1141H62.9273ZM66.6664 23.4057C65.9329 24.2941 65.0107 25.0084 63.9667 25.497C62.9227 25.9855 61.783 26.236 60.6301 26.2304C56.216 26.2304 52.6819 23.2876 52.6819 18.7307C52.6819 14.1737 56.2155 11.2323 60.6301 11.2323C64.7559 11.2323 67.3432 14.1714 67.3432 18.7307V20.1129H57.0979C57.2254 20.8969 57.6323 21.6084 58.2437 22.1163C58.855 22.6243 59.6295 22.8945 60.4245 22.8771C61.0528 22.8732 61.6702 22.7124 62.2204 22.4094C62.7705 22.1064 63.2361 21.6707 63.5747 21.1421L66.6664 23.4057ZM76.544 15.0986C74.3369 15.0986 73.0126 16.5704 73.0126 18.715C73.0126 20.8597 74.3364 22.3329 76.544 22.3329C78.7515 22.3329 80.0785 20.8633 80.0785 18.715C80.0785 16.5667 78.7538 15.0986 76.544 15.0986ZM84.1423 25.8617H80.0785V23.9788H80.0183C79.5085 24.6637 78.8472 25.2217 78.086 25.6095C77.3248 25.9972 76.4843 26.2042 75.6299 26.2143C71.3886 26.2143 68.5948 23.1572 68.5948 18.834C68.5948 14.8634 71.0672 11.2176 75.1314 11.2176C76.9582 11.2176 78.6646 11.7167 79.6656 13.1004H79.7235V4.91639H84.1418L84.1423 25.8617ZM113.942 25.8699H109.528V18.9658C109.528 17.3194 109.498 15.2 107.232 15.2C104.933 15.2 104.581 16.9938 104.581 18.8459V25.8695H100.167V11.6717H104.405V13.612H104.464C104.888 12.8878 105.501 12.2921 106.237 11.8882C106.973 11.4843 107.805 11.2875 108.645 11.3186C113.119 11.3186 113.944 14.2577 113.944 18.0813L113.942 25.8699ZM95.1864 9.73101C94.6797 9.7311 94.1844 9.58114 93.7631 9.30009C93.3418 9.01905 93.0135 8.61954 92.8195 8.15209C92.6255 7.68463 92.5747 7.17024 92.6734 6.67394C92.7722 6.17764 93.0161 5.72173 93.3743 5.36387C93.7325 5.00601 94.1888 4.76226 94.6857 4.66346C95.1826 4.56465 95.6976 4.61522 96.1657 4.80878C96.6339 5.00233 97.034 5.33018 97.3155 5.75085C97.5971 6.17153 97.7474 6.66614 97.7475 7.17215C97.7475 7.50812 97.6813 7.84082 97.5527 8.15124C97.424 8.46166 97.2354 8.74373 96.9975 8.98134C96.7597 9.21895 96.4773 9.40745 96.1666 9.53608C95.8558 9.66471 95.5228 9.73095 95.1864 9.73101ZM97.3934 25.8699H92.9747V11.6717H97.3934V25.8699ZM116.142 0.520124H90.7566C90.1804 0.51363 89.6252 0.735871 89.213 1.13801C88.8008 1.54015 88.5653 2.08929 88.5583 2.66475V28.1243C88.5651 28.7 88.8004 29.2496 89.2126 29.6521C89.6248 30.0547 90.1801 30.2773 90.7566 30.2712H116.142C116.72 30.2785 117.277 30.0564 117.691 29.6539C118.105 29.2513 118.342 28.7012 118.35 28.1243V2.66292C118.341 2.08631 118.104 1.53655 117.69 1.13442C117.277 0.732287 116.72 0.510682 116.142 0.518286M121.74 26.4242C121.203 26.4294 120.69 26.6467 120.312 27.0287C119.935 27.4108 119.725 27.9264 119.728 28.4628C119.73 28.9992 119.946 29.5127 120.326 29.8911C120.707 30.2695 121.222 30.4819 121.759 30.4819C122.296 30.4819 122.812 30.2695 123.192 29.8911C123.573 29.5127 123.788 28.9992 123.791 28.4628C123.793 27.9264 123.583 27.4108 123.206 27.0287C122.829 26.6467 122.316 26.4294 121.779 26.4242H121.74ZM121.74 30.2496C121.387 30.2555 121.041 30.1569 120.745 29.9663C120.449 29.7757 120.216 29.5017 120.076 29.1789C119.936 28.8561 119.894 28.499 119.957 28.1528C120.02 27.8066 120.185 27.4868 120.43 27.2339C120.675 26.981 120.989 26.8063 121.334 26.7319C121.678 26.6575 122.037 26.6868 122.364 26.816C122.692 26.9453 122.974 27.1686 123.174 27.4579C123.375 27.7472 123.485 28.0894 123.491 28.4412C123.491 28.4513 123.491 28.4609 123.491 28.471C123.501 28.9325 123.327 29.3791 123.007 29.7125C122.687 30.0458 122.248 30.2387 121.786 30.2487H121.74" fill="#2563EB"/>
<path d="M122.062 28.5817C122.138 28.5825 122.213 28.5677 122.282 28.5383C122.352 28.5089 122.415 28.4656 122.467 28.4109C122.519 28.3563 122.559 28.2915 122.585 28.2206C122.612 28.1498 122.623 28.0743 122.618 27.9989C122.618 27.5856 122.369 27.3881 121.856 27.3881H121.029V29.5521H121.34V28.6088H121.723L121.731 28.6203L122.325 29.5521H122.658L122.019 28.5877L122.062 28.5817ZM121.702 28.3649H121.341V27.6334H121.799C122.035 27.6334 122.304 27.672 122.304 27.981C122.304 28.3365 122.032 28.3649 121.7 28.3649M0.790894 4.921H5.38574V21.6372H13.8922V25.8722H0.790894V4.921ZM15.9236 11.6667H20.3377V25.8644H15.9236V11.6667ZM18.1306 4.60823C18.6371 4.60832 19.1321 4.75839 19.5531 5.03947C19.9742 5.32054 20.3023 5.72 20.496 6.18733C20.6898 6.65465 20.7404 7.16886 20.6416 7.66494C20.5427 8.16101 20.2988 8.61666 19.9407 8.97429C19.5826 9.33191 19.1263 9.57544 18.6296 9.67409C18.1329 9.77273 17.618 9.72206 17.1501 9.52847C16.6823 9.33489 16.2824 9.00709 16.001 8.58652C15.7197 8.16596 15.5695 7.67151 15.5695 7.16571C15.5695 6.82982 15.6358 6.49722 15.7645 6.1869C15.8932 5.87658 16.0819 5.59463 16.3197 5.35714C16.5575 5.11965 16.8399 4.93128 17.1506 4.80278C17.4613 4.67428 17.7943 4.60817 18.1306 4.60823ZM38.8026 4.91777H43.2167V17.4388L48.2194 11.6603H53.6314L47.8378 18.2333L53.5095 25.8704H47.9615L43.2756 18.8523H43.2177V25.8695H38.8035L38.8026 4.91777ZM22.7853 11.6681H27.0242V13.6083H27.0844C27.5078 12.8838 28.1203 12.2878 28.8565 11.8839C29.5926 11.48 30.4248 11.2833 31.2641 11.3149C35.7403 11.3149 36.5643 14.2563 36.5643 18.0776V25.8635H32.1501V18.9607C32.1501 17.313 32.1198 15.195 29.8511 15.195C27.5567 15.195 27.2026 16.9892 27.2026 18.8409V25.8617H22.7885L22.7853 11.6681ZM62.9273 17.1141C62.9357 16.7565 62.8714 16.4008 62.7381 16.0687C62.6049 15.7366 62.4056 15.435 62.1522 15.1821C61.8988 14.9292 61.5966 14.7303 61.264 14.5974C60.9314 14.4646 60.5753 14.4006 60.2172 14.4092C59.4459 14.3613 58.6867 14.618 58.1032 15.124C57.5197 15.63 57.1586 16.3447 57.0979 17.1141H62.9273ZM66.6664 23.4057C65.9329 24.2941 65.0107 25.0084 63.9667 25.497C62.9227 25.9855 61.783 26.236 60.6301 26.2304C56.216 26.2304 52.6819 23.2876 52.6819 18.7307C52.6819 14.1737 56.2155 11.2323 60.6301 11.2323C64.7559 11.2323 67.3432 14.1714 67.3432 18.7307V20.1129H57.0979C57.2254 20.8969 57.6323 21.6084 58.2437 22.1163C58.855 22.6243 59.6295 22.8945 60.4245 22.8771C61.0528 22.8732 61.6702 22.7124 62.2204 22.4094C62.7705 22.1064 63.2361 21.6707 63.5747 21.1421L66.6664 23.4057ZM76.544 15.0986C74.3369 15.0986 73.0126 16.5704 73.0126 18.715C73.0126 20.8597 74.3364 22.3329 76.544 22.3329C78.7515 22.3329 80.0785 20.8633 80.0785 18.715C80.0785 16.5667 78.7538 15.0986 76.544 15.0986ZM84.1423 25.8617H80.0785V23.9788H80.0183C79.5085 24.6637 78.8472 25.2217 78.086 25.6095C77.3248 25.9972 76.4843 26.2042 75.6299 26.2143C71.3886 26.2143 68.5948 23.1572 68.5948 18.834C68.5948 14.8634 71.0672 11.2176 75.1314 11.2176C76.9582 11.2176 78.6646 11.7167 79.6656 13.1004H79.7235V4.91639H84.1418L84.1423 25.8617ZM113.942 25.8699H109.528V18.9658C109.528 17.3194 109.498 15.2 107.232 15.2C104.933 15.2 104.581 16.9938 104.581 18.8459V25.8695H100.167V11.6717H104.405V13.612H104.464C104.888 12.8878 105.501 12.2921 106.237 11.8882C106.973 11.4843 107.805 11.2875 108.645 11.3186C113.119 11.3186 113.944 14.2577 113.944 18.0813L113.942 25.8699ZM95.1864 9.73101C94.6797 9.7311 94.1844 9.58114 93.7631 9.30009C93.3418 9.01905 93.0135 8.61954 92.8195 8.15209C92.6255 7.68463 92.5747 7.17024 92.6734 6.67394C92.7722 6.17764 93.0161 5.72173 93.3743 5.36387C93.7325 5.00601 94.1888 4.76226 94.6857 4.66346C95.1826 4.56465 95.6976 4.61522 96.1657 4.80878C96.6339 5.00233 97.034 5.33018 97.3155 5.75085C97.5971 6.17153 97.7474 6.66614 97.7475 7.17215C97.7475 7.50812 97.6813 7.84082 97.5527 8.15124C97.424 8.46166 97.2354 8.74373 96.9975 8.98134C96.7597 9.21895 96.4773 9.40745 96.1666 9.53608C95.8558 9.66471 95.5228 9.73095 95.1864 9.73101ZM97.3934 25.8699H92.9747V11.6717H97.3934V25.8699ZM116.142 0.520124H90.7566C90.1804 0.51363 89.6252 0.735871 89.213 1.13801C88.8008 1.54015 88.5653 2.08929 88.5583 2.66475V28.1243C88.5651 28.7 88.8004 29.2496 89.2126 29.6521C89.6248 30.0547 90.1801 30.2773 90.7566 30.2712H116.142C116.72 30.2785 117.277 30.0564 117.691 29.6539C118.105 29.2513 118.342 28.7012 118.35 28.1243V2.66292C118.341 2.08631 118.104 1.53655 117.69 1.13442C117.277 0.732287 116.72 0.510682 116.142 0.518286M121.74 26.4242C121.203 26.4294 120.69 26.6467 120.312 27.0287C119.935 27.4108 119.725 27.9264 119.728 28.4628C119.73 28.9992 119.946 29.5127 120.326 29.8911C120.707 30.2695 121.222 30.4819 121.759 30.4819C122.296 30.4819 122.812 30.2695 123.192 29.8911C123.573 29.5127 123.788 28.9992 123.791 28.4628C123.793 27.9264 123.583 27.4108 123.206 27.0287C122.829 26.6467 122.316 26.4294 121.779 26.4242H121.74ZM121.74 30.2496C121.387 30.2555 121.041 30.1569 120.745 29.9663C120.449 29.7757 120.216 29.5017 120.076 29.1789C119.936 28.8561 119.894 28.499 119.957 28.1528C120.02 27.8066 120.185 27.4868 120.43 27.2339C120.675 26.981 120.989 26.8063 121.334 26.7319C121.678 26.6575 122.037 26.6868 122.364 26.816C122.692 26.9453 122.974 27.1686 123.174 27.4579C123.375 27.7472 123.485 28.0894 123.491 28.4412C123.491 28.4513 123.491 28.4609 123.491 28.471C123.501 28.9325 123.327 29.3791 123.007 29.7125C122.687 30.0458 122.248 30.2387 121.786 30.2487H121.74" fill="#2563EB"/>
</svg>
