<svg width="69" height="58" viewBox="0 0 69 58" fill="none" xmlns="http://www.w3.org/2000/svg">
<path fill-rule="evenodd" clip-rule="evenodd" d="M64.7442 0H4.04651C1.81169 0 0 1.83325 0 4.09469V53.2309C0 55.4924 1.81169 57.3256 4.04651 57.3256H64.7442C66.979 57.3256 68.7907 55.4924 68.7907 53.2309V4.09469C68.7907 1.83325 66.979 0 64.7442 0ZM4.04525 53.2306V4.09437H64.743V53.2306H4.04525ZM11.1276 16.8902C11.1276 21.1304 14.5245 24.5677 18.7148 24.5677C22.9051 24.5677 26.302 21.1304 26.302 16.8902C26.302 12.65 22.9051 9.21263 18.7148 9.21263C14.5245 9.21263 11.1276 12.65 11.1276 16.8902ZM22.2542 16.8899C22.2542 18.8686 20.669 20.4727 18.7135 20.4727C16.758 20.4727 15.1728 18.8686 15.1728 16.8899C15.1728 14.9111 16.758 13.307 18.7135 13.307C20.669 13.307 22.2542 14.9111 22.2542 16.8899ZM14.5753 48.5422C13.7817 49.3382 12.5007 49.3326 11.714 48.5296C10.9273 47.7267 10.9328 46.4304 11.7264 45.6343L28.367 28.9405L37.7461 37.1956C38.5892 37.9376 38.6782 39.2308 37.9449 40.084C37.2115 40.9371 35.9336 41.0271 35.0905 40.2851L28.547 34.5258L14.5753 48.5422ZM29.7557 48.5366C28.9656 49.3362 27.6846 49.3363 26.8944 48.5368C26.1042 47.7372 26.1042 46.4409 26.8943 45.6414L53.523 18.6932L68.1013 31.6369C68.9412 32.3827 69.0247 33.6762 68.2877 34.5261C67.5507 35.3761 66.2724 35.4605 65.4325 34.7148L53.7039 24.3012L29.7557 48.5366Z" fill="#1D4ED8"/>
<path fill-rule="evenodd" clip-rule="evenodd" d="M64.7442 0H4.04651C1.81169 0 0 1.83325 0 4.09469V53.2309C0 55.4924 1.81169 57.3256 4.04651 57.3256H64.7442C66.979 57.3256 68.7907 55.4924 68.7907 53.2309V4.09469C68.7907 1.83325 66.979 0 64.7442 0ZM4.04525 53.2306V4.09437H64.743V53.2306H4.04525ZM11.1276 16.8902C11.1276 21.1304 14.5245 24.5677 18.7148 24.5677C22.9051 24.5677 26.302 21.1304 26.302 16.8902C26.302 12.65 22.9051 9.21263 18.7148 9.21263C14.5245 9.21263 11.1276 12.65 11.1276 16.8902ZM22.2542 16.8899C22.2542 18.8686 20.669 20.4727 18.7135 20.4727C16.758 20.4727 15.1728 18.8686 15.1728 16.8899C15.1728 14.9111 16.758 13.307 18.7135 13.307C20.669 13.307 22.2542 14.9111 22.2542 16.8899ZM14.5753 48.5422C13.7817 49.3382 12.5007 49.3326 11.714 48.5296C10.9273 47.7267 10.9328 46.4304 11.7264 45.6343L28.367 28.9405L37.7461 37.1956C38.5892 37.9376 38.6782 39.2308 37.9449 40.084C37.2115 40.9371 35.9336 41.0271 35.0905 40.2851L28.547 34.5258L14.5753 48.5422ZM29.7557 48.5366C28.9656 49.3362 27.6846 49.3363 26.8944 48.5368C26.1042 47.7372 26.1042 46.4409 26.8943 45.6414L53.523 18.6932L68.1013 31.6369C68.9412 32.3827 69.0247 33.6762 68.2877 34.5261C67.5507 35.3761 66.2724 35.4605 65.4325 34.7148L53.7039 24.3012L29.7557 48.5366Z" fill="#1D4ED8"/>
<path d="M64.7442 0H4.04651C1.81169 0 0 1.83325 0 4.09469V53.2309C0 55.4924 1.81169 57.3256 4.04651 57.3256H64.7442C66.979 57.3256 68.7907 55.4924 68.7907 53.2309V4.09469C68.7907 1.83325 66.979 0 64.7442 0ZM4.04525 53.2306V4.09437H64.743V53.2306H4.04525ZM11.1276 16.8902C11.1276 21.1304 14.5245 24.5677 18.7148 24.5677C22.9051 24.5677 26.302 21.1304 26.302 16.8902C26.302 12.65 22.9051 9.21263 18.7148 9.21263C14.5245 9.21263 11.1276 12.65 11.1276 16.8902ZM22.2542 16.8899C22.2542 18.8686 20.669 20.4727 18.7135 20.4727C16.758 20.4727 15.1728 18.8686 15.1728 16.8899C15.1728 14.9111 16.758 13.307 18.7135 13.307C20.669 13.307 22.2542 14.9111 22.2542 16.8899ZM14.5753 48.5422C13.7817 49.3382 12.5007 49.3326 11.714 48.5296C10.9273 47.7267 10.9328 46.4304 11.7264 45.6343L28.367 28.9405L37.7461 37.1956C38.5892 37.9376 38.6782 39.2308 37.9449 40.084C37.2115 40.9371 35.9336 41.0271 35.0905 40.2851L28.547 34.5258L14.5753 48.5422ZM29.7557 48.5366C28.9656 49.3362 27.6846 49.3363 26.8944 48.5368C26.1042 47.7372 26.1042 46.4409 26.8943 45.6414L53.523 18.6932L68.1013 31.6369C68.9412 32.3827 69.0247 33.6762 68.2877 34.5261C67.5507 35.3761 66.2724 35.4605 65.4325 34.7148L53.7039 24.3012L29.7557 48.5366Z" fill="#1D4ED8"/>
<path d="M64.7442 0H4.04651C1.81169 0 0 1.83325 0 4.09469V53.2309C0 55.4924 1.81169 57.3256 4.04651 57.3256H64.7442C66.979 57.3256 68.7907 55.4924 68.7907 53.2309V4.09469C68.7907 1.83325 66.979 0 64.7442 0ZM4.04525 53.2306V4.09437H64.743V53.2306H4.04525ZM11.1276 16.8902C11.1276 21.1304 14.5245 24.5677 18.7148 24.5677C22.9051 24.5677 26.302 21.1304 26.302 16.8902C26.302 12.65 22.9051 9.21263 18.7148 9.21263C14.5245 9.21263 11.1276 12.65 11.1276 16.8902ZM22.2542 16.8899C22.2542 18.8686 20.669 20.4727 18.7135 20.4727C16.758 20.4727 15.1728 18.8686 15.1728 16.8899C15.1728 14.9111 16.758 13.307 18.7135 13.307C20.669 13.307 22.2542 14.9111 22.2542 16.8899ZM14.5753 48.5422C13.7817 49.3382 12.5007 49.3326 11.714 48.5296C10.9273 47.7267 10.9328 46.4304 11.7264 45.6343L28.367 28.9405L37.7461 37.1956C38.5892 37.9376 38.6782 39.2308 37.9449 40.084C37.2115 40.9371 35.9336 41.0271 35.0905 40.2851L28.547 34.5258L14.5753 48.5422ZM29.7557 48.5366C28.9656 49.3362 27.6846 49.3363 26.8944 48.5368C26.1042 47.7372 26.1042 46.4409 26.8943 45.6414L53.523 18.6932L68.1013 31.6369C68.9412 32.3827 69.0247 33.6762 68.2877 34.5261C67.5507 35.3761 66.2724 35.4605 65.4325 34.7148L53.7039 24.3012L29.7557 48.5366Z" fill="#1D4ED8"/>
</svg>
